%TF.GenerationSoftware,KiCad,Pcbnew,8.0.0*%
%TF.CreationDate,2024-03-28T12:09:12-03:00*%
%TF.ProjectId,Ponderada,506f6e64-6572-4616-9461-2e6b69636164,rev?*%
%TF.SameCoordinates,Original*%
%TF.FileFunction,Copper,L1,Top*%
%TF.FilePolarity,Positive*%
%FSLAX46Y46*%
G04 Gerber Fmt 4.6, Leading zero omitted, Abs format (unit mm)*
G04 Created by KiCad (PCBNEW 8.0.0) date 2024-03-28 12:09:12*
%MOMM*%
%LPD*%
G01*
G04 APERTURE LIST*
G04 Aperture macros list*
%AMRoundRect*
0 Rectangle with rounded corners*
0 $1 Rounding radius*
0 $2 $3 $4 $5 $6 $7 $8 $9 X,Y pos of 4 corners*
0 Add a 4 corners polygon primitive as box body*
4,1,4,$2,$3,$4,$5,$6,$7,$8,$9,$2,$3,0*
0 Add four circle primitives for the rounded corners*
1,1,$1+$1,$2,$3*
1,1,$1+$1,$4,$5*
1,1,$1+$1,$6,$7*
1,1,$1+$1,$8,$9*
0 Add four rect primitives between the rounded corners*
20,1,$1+$1,$2,$3,$4,$5,0*
20,1,$1+$1,$4,$5,$6,$7,0*
20,1,$1+$1,$6,$7,$8,$9,0*
20,1,$1+$1,$8,$9,$2,$3,0*%
G04 Aperture macros list end*
%TA.AperFunction,SMDPad,CuDef*%
%ADD10R,1.700000X0.650000*%
%TD*%
%TA.AperFunction,ComponentPad*%
%ADD11O,1.700000X1.700000*%
%TD*%
%TA.AperFunction,SMDPad,CuDef*%
%ADD12R,3.500000X1.700000*%
%TD*%
%TA.AperFunction,ComponentPad*%
%ADD13R,1.700000X1.700000*%
%TD*%
%TA.AperFunction,SMDPad,CuDef*%
%ADD14R,1.700000X3.500000*%
%TD*%
%TA.AperFunction,ComponentPad*%
%ADD15C,2.400000*%
%TD*%
%TA.AperFunction,ComponentPad*%
%ADD16O,2.400000X2.400000*%
%TD*%
%TA.AperFunction,ComponentPad*%
%ADD17R,1.500000X1.050000*%
%TD*%
%TA.AperFunction,ComponentPad*%
%ADD18O,1.500000X1.050000*%
%TD*%
%TA.AperFunction,ComponentPad*%
%ADD19C,2.540000*%
%TD*%
%TA.AperFunction,ComponentPad*%
%ADD20R,2.540000X2.540000*%
%TD*%
%TA.AperFunction,ComponentPad*%
%ADD21C,3.000000*%
%TD*%
%TA.AperFunction,ComponentPad*%
%ADD22RoundRect,0.250000X-0.350000X-0.625000X0.350000X-0.625000X0.350000X0.625000X-0.350000X0.625000X0*%
%TD*%
%TA.AperFunction,ComponentPad*%
%ADD23O,1.200000X1.750000*%
%TD*%
%TA.AperFunction,ComponentPad*%
%ADD24R,1.800000X1.800000*%
%TD*%
%TA.AperFunction,ComponentPad*%
%ADD25C,1.800000*%
%TD*%
%TA.AperFunction,Conductor*%
%ADD26C,1.000000*%
%TD*%
%TA.AperFunction,Conductor*%
%ADD27C,0.200000*%
%TD*%
G04 APERTURE END LIST*
D10*
%TO.P,U2,8*%
%TO.N,N/C*%
X186000000Y-105500000D03*
%TO.P,U2,7*%
X186000000Y-106770000D03*
%TO.P,U2,6*%
X186000000Y-108040000D03*
%TO.P,U2,5*%
X186000000Y-109310000D03*
%TO.P,U2,4*%
X178700000Y-109310000D03*
%TO.P,U2,3,GND*%
%TO.N,GND*%
X178700000Y-108040000D03*
%TO.P,U2,2,V_{OUT}*%
%TO.N,Analogico*%
X178700000Y-106770000D03*
%TO.P,U2,1,+V_{S}*%
%TO.N,VCC*%
X178700000Y-105500000D03*
%TD*%
D11*
%TO.P,U1,1,GPIO0*%
%TO.N,unconnected-(U1-GPIO0-Pad1)*%
X113195000Y-87705000D03*
D12*
X112295000Y-87705000D03*
D11*
%TO.P,U1,2,GPIO1*%
%TO.N,unconnected-(U1-GPIO1-Pad2)*%
X113195000Y-90245000D03*
D12*
X112295000Y-90245000D03*
D13*
%TO.P,U1,3,GND*%
%TO.N,unconnected-(U1-GND-Pad3)*%
X113195000Y-92785000D03*
D12*
X112295000Y-92785000D03*
D11*
%TO.P,U1,4,GPIO2*%
%TO.N,unconnected-(U1-GPIO2-Pad4)*%
X113195000Y-95325000D03*
D12*
X112295000Y-95325000D03*
D11*
%TO.P,U1,5,GPIO3*%
%TO.N,unconnected-(U1-GPIO3-Pad5)*%
X113195000Y-97865000D03*
D12*
X112295000Y-97865000D03*
D11*
%TO.P,U1,6,GPIO4*%
%TO.N,unconnected-(U1-GPIO4-Pad6)*%
X113195000Y-100405000D03*
D12*
X112295000Y-100405000D03*
D11*
%TO.P,U1,7,GPIO5*%
%TO.N,unconnected-(U1-GPIO5-Pad7)*%
X113195000Y-102945000D03*
D12*
X112295000Y-102945000D03*
D13*
%TO.P,U1,8,GND*%
%TO.N,unconnected-(U1-GND-Pad8)*%
X113195000Y-105485000D03*
D12*
X112295000Y-105485000D03*
D11*
%TO.P,U1,9,GPIO6*%
%TO.N,unconnected-(U1-GPIO6-Pad9)*%
X113195000Y-108025000D03*
D12*
X112295000Y-108025000D03*
D11*
%TO.P,U1,10,GPIO7*%
%TO.N,unconnected-(U1-GPIO7-Pad10)*%
X113195000Y-110565000D03*
D12*
X112295000Y-110565000D03*
D11*
%TO.P,U1,11,GPIO8*%
%TO.N,unconnected-(U1-GPIO8-Pad11)*%
X113195000Y-113105000D03*
D12*
X112295000Y-113105000D03*
D11*
%TO.P,U1,12,GPIO9*%
%TO.N,unconnected-(U1-GPIO9-Pad12)*%
X113195000Y-115645000D03*
D12*
X112295000Y-115645000D03*
D13*
%TO.P,U1,13,GND*%
%TO.N,unconnected-(U1-GND-Pad13)*%
X113195000Y-118185000D03*
D12*
X112295000Y-118185000D03*
D11*
%TO.P,U1,14,GPIO10*%
%TO.N,unconnected-(U1-GPIO10-Pad14)*%
X113195000Y-120725000D03*
D12*
X112295000Y-120725000D03*
D11*
%TO.P,U1,15,GPIO11*%
%TO.N,unconnected-(U1-GPIO11-Pad15)*%
X113195000Y-123265000D03*
D12*
X112295000Y-123265000D03*
D11*
%TO.P,U1,16,GPIO12*%
%TO.N,unconnected-(U1-GPIO12-Pad16)*%
X113195000Y-125805000D03*
D12*
X112295000Y-125805000D03*
D11*
%TO.P,U1,17,GPIO13*%
%TO.N,unconnected-(U1-GPIO13-Pad17)*%
X113195000Y-128345000D03*
D12*
X112295000Y-128345000D03*
D13*
%TO.P,U1,18,GND*%
%TO.N,unconnected-(U1-GND-Pad18)*%
X113195000Y-130885000D03*
D12*
X112295000Y-130885000D03*
D11*
%TO.P,U1,19,GPIO14*%
%TO.N,unconnected-(U1-GPIO14-Pad19)*%
X113195000Y-133425000D03*
D12*
X112295000Y-133425000D03*
D11*
%TO.P,U1,20,GPIO15*%
%TO.N,unconnected-(U1-GPIO15-Pad20)*%
X113195000Y-135965000D03*
D12*
X112295000Y-135965000D03*
D11*
%TO.P,U1,21,GPIO16*%
%TO.N,unconnected-(U1-GPIO16-Pad21)*%
X130975000Y-135965000D03*
D12*
X131875000Y-135965000D03*
D11*
%TO.P,U1,22,GPIO17*%
%TO.N,unconnected-(U1-GPIO17-Pad22)*%
X130975000Y-133425000D03*
D12*
X131875000Y-133425000D03*
D13*
%TO.P,U1,23,GND*%
%TO.N,unconnected-(U1-GND-Pad23)*%
X130975000Y-130885000D03*
D12*
X131875000Y-130885000D03*
D11*
%TO.P,U1,24,GPIO18*%
%TO.N,unconnected-(U1-GPIO18-Pad24)*%
X130975000Y-128345000D03*
D12*
X131875000Y-128345000D03*
D11*
%TO.P,U1,25,GPIO19*%
%TO.N,unconnected-(U1-GPIO19-Pad25)*%
X130975000Y-125805000D03*
D12*
X131875000Y-125805000D03*
D11*
%TO.P,U1,26,GPIO20*%
%TO.N,unconnected-(U1-GPIO20-Pad26)*%
X130975000Y-123265000D03*
D12*
X131875000Y-123265000D03*
D11*
%TO.P,U1,27,GPIO21*%
%TO.N,GP21*%
X130975000Y-120725000D03*
D12*
X131875000Y-120725000D03*
D13*
%TO.P,U1,28,GND*%
%TO.N,unconnected-(U1-GND-Pad28)*%
X130975000Y-118185000D03*
D12*
X131875000Y-118185000D03*
D11*
%TO.P,U1,29,GPIO22*%
%TO.N,GP22*%
X130975000Y-115645000D03*
D12*
X131875000Y-115645000D03*
D11*
%TO.P,U1,30,RUN*%
%TO.N,unconnected-(U1-RUN-Pad30)*%
X130975000Y-113105000D03*
D12*
X131875000Y-113105000D03*
D11*
%TO.P,U1,31,GPIO26_ADC0*%
%TO.N,Analogico*%
X130975000Y-110565000D03*
D12*
X131875000Y-110565000D03*
D11*
%TO.P,U1,32,GPIO27_ADC1*%
%TO.N,unconnected-(U1-GPIO27_ADC1-Pad32)*%
X130975000Y-108025000D03*
D12*
X131875000Y-108025000D03*
D13*
%TO.P,U1,33,AGND*%
%TO.N,unconnected-(U1-AGND-Pad33)*%
X130975000Y-105485000D03*
D12*
X131875000Y-105485000D03*
D11*
%TO.P,U1,34,GPIO28_ADC2*%
%TO.N,unconnected-(U1-GPIO28_ADC2-Pad34)*%
X130975000Y-102945000D03*
D12*
X131875000Y-102945000D03*
D11*
%TO.P,U1,35,ADC_VREF*%
%TO.N,unconnected-(U1-ADC_VREF-Pad35)*%
X130975000Y-100405000D03*
D12*
X131875000Y-100405000D03*
D11*
%TO.P,U1,36,3V3*%
%TO.N,unconnected-(U1-3V3-Pad36)*%
X130975000Y-97865000D03*
D12*
X131875000Y-97865000D03*
D11*
%TO.P,U1,37,3V3_EN*%
%TO.N,unconnected-(U1-3V3_EN-Pad37)*%
X130975000Y-95325000D03*
D12*
X131875000Y-95325000D03*
D13*
%TO.P,U1,38,GND*%
%TO.N,unconnected-(U1-GND-Pad38)*%
X130975000Y-92785000D03*
D12*
X131875000Y-92785000D03*
D11*
%TO.P,U1,39,VSYS*%
%TO.N,unconnected-(U1-VSYS-Pad39)*%
X130975000Y-90245000D03*
D12*
X131875000Y-90245000D03*
D11*
%TO.P,U1,40,VBUS*%
%TO.N,unconnected-(U1-VBUS-Pad40)*%
X130975000Y-87705000D03*
D12*
X131875000Y-87705000D03*
D11*
%TO.P,U1,41,SWCLK*%
%TO.N,unconnected-(U1-SWCLK-Pad41)*%
X119545000Y-135735000D03*
D14*
X119545000Y-136635000D03*
D13*
%TO.P,U1,42,GND*%
%TO.N,unconnected-(U1-GND-Pad42)*%
X122085000Y-135735000D03*
D14*
X122085000Y-136635000D03*
D11*
%TO.P,U1,43,SWDIO*%
%TO.N,unconnected-(U1-SWDIO-Pad43)*%
X124625000Y-135735000D03*
D14*
X124625000Y-136635000D03*
%TD*%
D15*
%TO.P,R2,1*%
%TO.N,GP22*%
X138300000Y-115500000D03*
D16*
%TO.P,R2,2*%
%TO.N,Net-(D1-K)*%
X163700000Y-115500000D03*
%TD*%
D15*
%TO.P,R1,1*%
%TO.N,GP21*%
X137800000Y-121500000D03*
D16*
%TO.P,R1,2*%
%TO.N,Net-(Q1-B)*%
X163200000Y-121500000D03*
%TD*%
D17*
%TO.P,Q1,1,C*%
%TO.N,Net-(Q1-C)*%
X173630000Y-124410000D03*
D18*
%TO.P,Q1,2,B*%
%TO.N,Net-(Q1-B)*%
X173630000Y-123140000D03*
%TO.P,Q1,3,E*%
%TO.N,GND*%
X173630000Y-121870000D03*
%TD*%
D19*
%TO.P,K1,A2*%
%TO.N,Net-(Q1-C)*%
X185150000Y-116180000D03*
D20*
%TO.P,K1,A1*%
%TO.N,VCC*%
X185150000Y-123800000D03*
D21*
%TO.P,K1,14*%
%TO.N,Net-(J1-Pin_2)*%
X210450000Y-116180000D03*
%TO.P,K1,12*%
%TO.N,unconnected-(K1-Pad12)*%
X204050000Y-116180000D03*
%TO.P,K1,11*%
%TO.N,Net-(J1-Pin_1)*%
X207250000Y-123800000D03*
%TD*%
D22*
%TO.P,J1,1,Pin_1*%
%TO.N,Net-(J1-Pin_1)*%
X207000000Y-129000000D03*
D23*
%TO.P,J1,2,Pin_2*%
%TO.N,Net-(J1-Pin_2)*%
X209000000Y-129000000D03*
%TD*%
D24*
%TO.P,D1,1,K*%
%TO.N,Net-(D1-K)*%
X171460000Y-116000000D03*
D25*
%TO.P,D1,2,A*%
%TO.N,GND*%
X174000000Y-116000000D03*
%TD*%
D26*
%TO.N,VCC*%
X179000000Y-103500000D02*
X181500000Y-101000000D01*
X185500000Y-101000000D02*
X189000000Y-104500000D01*
X189000000Y-111500000D02*
X188000000Y-112500000D01*
X189000000Y-104500000D02*
X189000000Y-111500000D01*
X181500000Y-101000000D02*
X185500000Y-101000000D01*
X188000000Y-112500000D02*
X188000000Y-120950000D01*
X188000000Y-120950000D02*
X185150000Y-123800000D01*
X178700000Y-105500000D02*
X178700000Y-103800000D01*
X178700000Y-103800000D02*
X179000000Y-103500000D01*
%TO.N,Net-(Q1-C)*%
X173630000Y-124410000D02*
X176920000Y-124410000D01*
X176920000Y-124410000D02*
X185150000Y-116180000D01*
%TO.N,Net-(J1-Pin_2)*%
X210450000Y-116180000D02*
X210450000Y-127550000D01*
X210450000Y-127550000D02*
X209000000Y-129000000D01*
%TO.N,Net-(J1-Pin_1)*%
X207000000Y-129000000D02*
X207000000Y-124050000D01*
X207000000Y-124050000D02*
X207250000Y-123800000D01*
%TO.N,Analogico*%
X178700000Y-106770000D02*
X137560000Y-106770000D01*
X137560000Y-106770000D02*
X136330000Y-108000000D01*
X136330000Y-108000000D02*
X133765000Y-110565000D01*
X133765000Y-110565000D02*
X130975000Y-110565000D01*
%TO.N,GND*%
X174960000Y-108040000D02*
X174000000Y-109000000D01*
X174000000Y-109000000D02*
X174000000Y-116000000D01*
X178700000Y-108040000D02*
X174960000Y-108040000D01*
X174000000Y-116000000D02*
X174000000Y-121500000D01*
X174000000Y-121500000D02*
X173630000Y-121870000D01*
%TO.N,Net-(D1-K)*%
X163700000Y-115500000D02*
X170960000Y-115500000D01*
X170960000Y-115500000D02*
X171460000Y-116000000D01*
%TO.N,Net-(Q1-B)*%
X163200000Y-121500000D02*
X164840000Y-123140000D01*
X164840000Y-123140000D02*
X173630000Y-123140000D01*
%TO.N,GP21*%
X137800000Y-121500000D02*
X131750000Y-121500000D01*
X131750000Y-121500000D02*
X130975000Y-120725000D01*
%TO.N,GP22*%
X138300000Y-115500000D02*
X131120000Y-115500000D01*
D27*
X131120000Y-115500000D02*
X130975000Y-115645000D01*
%TD*%
%TA.AperFunction,NonConductor*%
G36*
X226441945Y-67019910D02*
G01*
X226487906Y-67072535D01*
X226499312Y-67125168D01*
X226000682Y-157875702D01*
X225980630Y-157942633D01*
X225927575Y-157988097D01*
X225875704Y-157999017D01*
X99621357Y-157000959D01*
X99554475Y-156980745D01*
X99509139Y-156927581D01*
X99498349Y-156878654D01*
X99226025Y-136862870D01*
X110044500Y-136862870D01*
X110044501Y-136862876D01*
X110050908Y-136922483D01*
X110101202Y-137057328D01*
X110101206Y-137057335D01*
X110187452Y-137172544D01*
X110187455Y-137172547D01*
X110302664Y-137258793D01*
X110302671Y-137258797D01*
X110437517Y-137309091D01*
X110437516Y-137309091D01*
X110444444Y-137309835D01*
X110497127Y-137315500D01*
X113130611Y-137315499D01*
X113141419Y-137315971D01*
X113194999Y-137320659D01*
X113195000Y-137320659D01*
X113195001Y-137320659D01*
X113248580Y-137315971D01*
X113259388Y-137315499D01*
X114092871Y-137315499D01*
X114092872Y-137315499D01*
X114152483Y-137309091D01*
X114287331Y-137258796D01*
X114402546Y-137172546D01*
X114488796Y-137057331D01*
X114539091Y-136922483D01*
X114545500Y-136862873D01*
X114545499Y-136029383D01*
X114545971Y-136018576D01*
X114550659Y-135965000D01*
X114550659Y-135964999D01*
X114545971Y-135911421D01*
X114545499Y-135900613D01*
X114545499Y-135735001D01*
X118189341Y-135735001D01*
X118194028Y-135788574D01*
X118194500Y-135799381D01*
X118194500Y-138432870D01*
X118194501Y-138432876D01*
X118200908Y-138492483D01*
X118251202Y-138627328D01*
X118251206Y-138627335D01*
X118337452Y-138742544D01*
X118337455Y-138742547D01*
X118452664Y-138828793D01*
X118452671Y-138828797D01*
X118587517Y-138879091D01*
X118587516Y-138879091D01*
X118594444Y-138879835D01*
X118647127Y-138885500D01*
X120442872Y-138885499D01*
X120502483Y-138879091D01*
X120637331Y-138828796D01*
X120740690Y-138751421D01*
X120806152Y-138727004D01*
X120874425Y-138741855D01*
X120889303Y-138751416D01*
X120992665Y-138828793D01*
X120992668Y-138828795D01*
X120992671Y-138828797D01*
X121127517Y-138879091D01*
X121127516Y-138879091D01*
X121134444Y-138879835D01*
X121187127Y-138885500D01*
X122982872Y-138885499D01*
X123042483Y-138879091D01*
X123177331Y-138828796D01*
X123280690Y-138751421D01*
X123346152Y-138727004D01*
X123414425Y-138741855D01*
X123429303Y-138751416D01*
X123532665Y-138828793D01*
X123532668Y-138828795D01*
X123532671Y-138828797D01*
X123667517Y-138879091D01*
X123667516Y-138879091D01*
X123674444Y-138879835D01*
X123727127Y-138885500D01*
X125522872Y-138885499D01*
X125582483Y-138879091D01*
X125717331Y-138828796D01*
X125832546Y-138742546D01*
X125918796Y-138627331D01*
X125969091Y-138492483D01*
X125975500Y-138432873D01*
X125975499Y-135965002D01*
X129619341Y-135965002D01*
X129624028Y-136018576D01*
X129624500Y-136029383D01*
X129624500Y-136862870D01*
X129624501Y-136862876D01*
X129630908Y-136922483D01*
X129681202Y-137057328D01*
X129681206Y-137057335D01*
X129767452Y-137172544D01*
X129767455Y-137172547D01*
X129882664Y-137258793D01*
X129882671Y-137258797D01*
X130017517Y-137309091D01*
X130017516Y-137309091D01*
X130024444Y-137309835D01*
X130077127Y-137315500D01*
X130910616Y-137315499D01*
X130921425Y-137315971D01*
X130975000Y-137320659D01*
X131028575Y-137315971D01*
X131039384Y-137315499D01*
X133672871Y-137315499D01*
X133672872Y-137315499D01*
X133732483Y-137309091D01*
X133867331Y-137258796D01*
X133982546Y-137172546D01*
X134068796Y-137057331D01*
X134119091Y-136922483D01*
X134125500Y-136862873D01*
X134125499Y-135067128D01*
X134119091Y-135007517D01*
X134068796Y-134872669D01*
X133991421Y-134769309D01*
X133967004Y-134703848D01*
X133981855Y-134635575D01*
X133991416Y-134620696D01*
X134068796Y-134517331D01*
X134119091Y-134382483D01*
X134125500Y-134322873D01*
X134125499Y-132527128D01*
X134119091Y-132467517D01*
X134068796Y-132332669D01*
X133991421Y-132229309D01*
X133967004Y-132163848D01*
X133981855Y-132095575D01*
X133991416Y-132080696D01*
X134068796Y-131977331D01*
X134119091Y-131842483D01*
X134125500Y-131782873D01*
X134125499Y-129987128D01*
X134119091Y-129927517D01*
X134093212Y-129858133D01*
X134068797Y-129792671D01*
X134068795Y-129792668D01*
X134057664Y-129777799D01*
X133991421Y-129689309D01*
X133967004Y-129623848D01*
X133981855Y-129555575D01*
X133991416Y-129540696D01*
X134068796Y-129437331D01*
X134119091Y-129302483D01*
X134125500Y-129242873D01*
X134125499Y-127447128D01*
X134119091Y-127387517D01*
X134068796Y-127252669D01*
X133991421Y-127149309D01*
X133967004Y-127083848D01*
X133981855Y-127015575D01*
X133991416Y-127000696D01*
X134068796Y-126897331D01*
X134119091Y-126762483D01*
X134125500Y-126702873D01*
X134125499Y-124907128D01*
X134119091Y-124847517D01*
X134068796Y-124712669D01*
X133991421Y-124609309D01*
X133967004Y-124543848D01*
X133981855Y-124475575D01*
X133991416Y-124460696D01*
X134068796Y-124357331D01*
X134119091Y-124222483D01*
X134119091Y-124222482D01*
X134119092Y-124222480D01*
X134121800Y-124197282D01*
X134125500Y-124162873D01*
X134125499Y-122624499D01*
X134145184Y-122557461D01*
X134197987Y-122511706D01*
X134249499Y-122500500D01*
X136363136Y-122500500D01*
X136430175Y-122520185D01*
X136460081Y-122547185D01*
X136549950Y-122659877D01*
X136736783Y-122833232D01*
X136947366Y-122976805D01*
X136947371Y-122976807D01*
X136947372Y-122976808D01*
X136947373Y-122976809D01*
X137069328Y-123035538D01*
X137176992Y-123087387D01*
X137176993Y-123087387D01*
X137176996Y-123087389D01*
X137420542Y-123162513D01*
X137672565Y-123200500D01*
X137927435Y-123200500D01*
X138179458Y-123162513D01*
X138423004Y-123087389D01*
X138652634Y-122976805D01*
X138863217Y-122833232D01*
X139050050Y-122659877D01*
X139208959Y-122460612D01*
X139336393Y-122239888D01*
X139429508Y-122002637D01*
X139486222Y-121754157D01*
X139497883Y-121598544D01*
X139505268Y-121500004D01*
X139505268Y-121499995D01*
X139486222Y-121245845D01*
X139479474Y-121216282D01*
X139429508Y-120997363D01*
X139336393Y-120760112D01*
X139208959Y-120539388D01*
X139050050Y-120340123D01*
X138863217Y-120166768D01*
X138652634Y-120023195D01*
X138652630Y-120023193D01*
X138652627Y-120023191D01*
X138652626Y-120023190D01*
X138423006Y-119912612D01*
X138423008Y-119912612D01*
X138179466Y-119837489D01*
X138179462Y-119837488D01*
X138179458Y-119837487D01*
X138058231Y-119819214D01*
X137927440Y-119799500D01*
X137927435Y-119799500D01*
X137672565Y-119799500D01*
X137672559Y-119799500D01*
X137515609Y-119823157D01*
X137420542Y-119837487D01*
X137420539Y-119837488D01*
X137420533Y-119837489D01*
X137176992Y-119912612D01*
X136947373Y-120023190D01*
X136947372Y-120023191D01*
X136736782Y-120166768D01*
X136549952Y-120340121D01*
X136549950Y-120340123D01*
X136460083Y-120452813D01*
X136402894Y-120492953D01*
X136363136Y-120499500D01*
X134249499Y-120499500D01*
X134182460Y-120479815D01*
X134136705Y-120427011D01*
X134125499Y-120375500D01*
X134125499Y-119827129D01*
X134125498Y-119827123D01*
X134125497Y-119827116D01*
X134119091Y-119767517D01*
X134068796Y-119632669D01*
X133991421Y-119529309D01*
X133967004Y-119463848D01*
X133981855Y-119395575D01*
X133991416Y-119380696D01*
X134068796Y-119277331D01*
X134119091Y-119142483D01*
X134125500Y-119082873D01*
X134125499Y-117287128D01*
X134119091Y-117227517D01*
X134109014Y-117200500D01*
X134068797Y-117092671D01*
X134068795Y-117092668D01*
X134064842Y-117087387D01*
X133991421Y-116989309D01*
X133967004Y-116923848D01*
X133981855Y-116855575D01*
X133991416Y-116840696D01*
X134068796Y-116737331D01*
X134119091Y-116602483D01*
X134119092Y-116602472D01*
X134120625Y-116595989D01*
X134155197Y-116535271D01*
X134217107Y-116502884D01*
X134241303Y-116500500D01*
X136863136Y-116500500D01*
X136930175Y-116520185D01*
X136960081Y-116547185D01*
X137049950Y-116659877D01*
X137236783Y-116833232D01*
X137447366Y-116976805D01*
X137447371Y-116976807D01*
X137447372Y-116976808D01*
X137447373Y-116976809D01*
X137522860Y-117013161D01*
X137676992Y-117087387D01*
X137676993Y-117087387D01*
X137676996Y-117087389D01*
X137920542Y-117162513D01*
X138172565Y-117200500D01*
X138427435Y-117200500D01*
X138679458Y-117162513D01*
X138923004Y-117087389D01*
X139143938Y-116980993D01*
X139152626Y-116976809D01*
X139152626Y-116976808D01*
X139152634Y-116976805D01*
X139363217Y-116833232D01*
X139550050Y-116659877D01*
X139708959Y-116460612D01*
X139836393Y-116239888D01*
X139929508Y-116002637D01*
X139986222Y-115754157D01*
X140001993Y-115543699D01*
X140005268Y-115500004D01*
X140005268Y-115499995D01*
X139986222Y-115245845D01*
X139961343Y-115136844D01*
X139929508Y-114997363D01*
X139836393Y-114760112D01*
X139708959Y-114539388D01*
X139550050Y-114340123D01*
X139363217Y-114166768D01*
X139152634Y-114023195D01*
X139152630Y-114023193D01*
X139152627Y-114023191D01*
X139152626Y-114023190D01*
X138923006Y-113912612D01*
X138923008Y-113912612D01*
X138679466Y-113837489D01*
X138679462Y-113837488D01*
X138679458Y-113837487D01*
X138558231Y-113819214D01*
X138427440Y-113799500D01*
X138427435Y-113799500D01*
X138172565Y-113799500D01*
X138172559Y-113799500D01*
X138015609Y-113823157D01*
X137920542Y-113837487D01*
X137920539Y-113837488D01*
X137920533Y-113837489D01*
X137676992Y-113912612D01*
X137447373Y-114023190D01*
X137447372Y-114023191D01*
X137236782Y-114166768D01*
X137049952Y-114340121D01*
X137049950Y-114340123D01*
X136962482Y-114449805D01*
X136960083Y-114452813D01*
X136902894Y-114492953D01*
X136863136Y-114499500D01*
X134091063Y-114499500D01*
X134024024Y-114479815D01*
X133991792Y-114449805D01*
X133991417Y-114449304D01*
X133967003Y-114383838D01*
X133981859Y-114315566D01*
X133991411Y-114300702D01*
X134068796Y-114197331D01*
X134119091Y-114062483D01*
X134125500Y-114002873D01*
X134125499Y-112207128D01*
X134119091Y-112147517D01*
X134115459Y-112137780D01*
X134068797Y-112012671D01*
X134068795Y-112012668D01*
X134039788Y-111973920D01*
X133991421Y-111909309D01*
X133967004Y-111843848D01*
X133981855Y-111775575D01*
X133991416Y-111760696D01*
X134068796Y-111657331D01*
X134109589Y-111547958D01*
X134151459Y-111492025D01*
X134178313Y-111476732D01*
X134238914Y-111451632D01*
X134402782Y-111342139D01*
X134542139Y-111202782D01*
X134542140Y-111202779D01*
X134549206Y-111195714D01*
X134549208Y-111195710D01*
X137107139Y-108637781D01*
X137165698Y-108579222D01*
X137165709Y-108579209D01*
X137938102Y-107806819D01*
X137999425Y-107773334D01*
X138025783Y-107770500D01*
X173515218Y-107770500D01*
X173582257Y-107790185D01*
X173628012Y-107842989D01*
X173637956Y-107912147D01*
X173608931Y-107975703D01*
X173602905Y-107982174D01*
X173362221Y-108222858D01*
X173362218Y-108222861D01*
X173292538Y-108292540D01*
X173222859Y-108362219D01*
X173113371Y-108526080D01*
X173113364Y-108526093D01*
X173067103Y-108637781D01*
X173067103Y-108637782D01*
X173040161Y-108702822D01*
X173040162Y-108702823D01*
X173037948Y-108708168D01*
X173037946Y-108708173D01*
X172999500Y-108901454D01*
X172999500Y-114746538D01*
X172979815Y-114813577D01*
X172927011Y-114859332D01*
X172857853Y-114869276D01*
X172794297Y-114840251D01*
X172776234Y-114820850D01*
X172730765Y-114760112D01*
X172717546Y-114742454D01*
X172717544Y-114742453D01*
X172717544Y-114742452D01*
X172602335Y-114656206D01*
X172602328Y-114656202D01*
X172467482Y-114605908D01*
X172467483Y-114605908D01*
X172407883Y-114599501D01*
X172407881Y-114599500D01*
X172407873Y-114599500D01*
X172407865Y-114599500D01*
X171425098Y-114599500D01*
X171377646Y-114590061D01*
X171287373Y-114552669D01*
X171251836Y-114537949D01*
X171251828Y-114537947D01*
X171155188Y-114518724D01*
X171058544Y-114499500D01*
X171058541Y-114499500D01*
X165136864Y-114499500D01*
X165069825Y-114479815D01*
X165039917Y-114452813D01*
X164950050Y-114340123D01*
X164763217Y-114166768D01*
X164552634Y-114023195D01*
X164552630Y-114023193D01*
X164552627Y-114023191D01*
X164552626Y-114023190D01*
X164323006Y-113912612D01*
X164323008Y-113912612D01*
X164079466Y-113837489D01*
X164079462Y-113837488D01*
X164079458Y-113837487D01*
X163958231Y-113819214D01*
X163827440Y-113799500D01*
X163827435Y-113799500D01*
X163572565Y-113799500D01*
X163572559Y-113799500D01*
X163415609Y-113823157D01*
X163320542Y-113837487D01*
X163320539Y-113837488D01*
X163320533Y-113837489D01*
X163076992Y-113912612D01*
X162847373Y-114023190D01*
X162847372Y-114023191D01*
X162636782Y-114166768D01*
X162449952Y-114340121D01*
X162449950Y-114340123D01*
X162291041Y-114539388D01*
X162163608Y-114760109D01*
X162070492Y-114997362D01*
X162070490Y-114997369D01*
X162013777Y-115245845D01*
X161994732Y-115499995D01*
X161994732Y-115500004D01*
X162013777Y-115754154D01*
X162069888Y-115999993D01*
X162070492Y-116002637D01*
X162163607Y-116239888D01*
X162291041Y-116460612D01*
X162449950Y-116659877D01*
X162636783Y-116833232D01*
X162847366Y-116976805D01*
X162847371Y-116976807D01*
X162847372Y-116976808D01*
X162847373Y-116976809D01*
X162922860Y-117013161D01*
X163076992Y-117087387D01*
X163076993Y-117087387D01*
X163076996Y-117087389D01*
X163320542Y-117162513D01*
X163572565Y-117200500D01*
X163827435Y-117200500D01*
X164079458Y-117162513D01*
X164323004Y-117087389D01*
X164543938Y-116980993D01*
X164552626Y-116976809D01*
X164552626Y-116976808D01*
X164552634Y-116976805D01*
X164763217Y-116833232D01*
X164950050Y-116659877D01*
X165039917Y-116547186D01*
X165097106Y-116507047D01*
X165136864Y-116500500D01*
X169935501Y-116500500D01*
X170002540Y-116520185D01*
X170048295Y-116572989D01*
X170059501Y-116624500D01*
X170059501Y-116947876D01*
X170065908Y-117007483D01*
X170116202Y-117142328D01*
X170116206Y-117142335D01*
X170202452Y-117257544D01*
X170202455Y-117257547D01*
X170317664Y-117343793D01*
X170317671Y-117343797D01*
X170452517Y-117394091D01*
X170452516Y-117394091D01*
X170459444Y-117394835D01*
X170512127Y-117400500D01*
X172407872Y-117400499D01*
X172467483Y-117394091D01*
X172602331Y-117343796D01*
X172717546Y-117257546D01*
X172760251Y-117200500D01*
X172776234Y-117179150D01*
X172832168Y-117137279D01*
X172901859Y-117132295D01*
X172963182Y-117165781D01*
X172996666Y-117227104D01*
X172999500Y-117253461D01*
X172999500Y-120845116D01*
X172979815Y-120912155D01*
X172927011Y-120957910D01*
X172922958Y-120959675D01*
X172919248Y-120961211D01*
X172919237Y-120961217D01*
X172751281Y-121073441D01*
X172608441Y-121216281D01*
X172496217Y-121384237D01*
X172496212Y-121384247D01*
X172418909Y-121570872D01*
X172418907Y-121570880D01*
X172379500Y-121768992D01*
X172379500Y-121971003D01*
X172383539Y-121991307D01*
X172377312Y-122060899D01*
X172334450Y-122116077D01*
X172268561Y-122139322D01*
X172261922Y-122139500D01*
X165305782Y-122139500D01*
X165238743Y-122119815D01*
X165218101Y-122103181D01*
X164925249Y-121810329D01*
X164891764Y-121749006D01*
X164889277Y-121713385D01*
X164905268Y-121500000D01*
X164896593Y-121384244D01*
X164886222Y-121245845D01*
X164879474Y-121216282D01*
X164829508Y-120997363D01*
X164736393Y-120760112D01*
X164608959Y-120539388D01*
X164450050Y-120340123D01*
X164263217Y-120166768D01*
X164052634Y-120023195D01*
X164052630Y-120023193D01*
X164052627Y-120023191D01*
X164052626Y-120023190D01*
X163823006Y-119912612D01*
X163823008Y-119912612D01*
X163579466Y-119837489D01*
X163579462Y-119837488D01*
X163579458Y-119837487D01*
X163458231Y-119819214D01*
X163327440Y-119799500D01*
X163327435Y-119799500D01*
X163072565Y-119799500D01*
X163072559Y-119799500D01*
X162915609Y-119823157D01*
X162820542Y-119837487D01*
X162820539Y-119837488D01*
X162820533Y-119837489D01*
X162576992Y-119912612D01*
X162347373Y-120023190D01*
X162347372Y-120023191D01*
X162136782Y-120166768D01*
X161949952Y-120340121D01*
X161949950Y-120340123D01*
X161791041Y-120539388D01*
X161663608Y-120760109D01*
X161570492Y-120997362D01*
X161570490Y-120997369D01*
X161513777Y-121245845D01*
X161494732Y-121499995D01*
X161494732Y-121500004D01*
X161513777Y-121754154D01*
X161568333Y-121993181D01*
X161570492Y-122002637D01*
X161663607Y-122239888D01*
X161791041Y-122460612D01*
X161949950Y-122659877D01*
X162136783Y-122833232D01*
X162347366Y-122976805D01*
X162347371Y-122976807D01*
X162347372Y-122976808D01*
X162347373Y-122976809D01*
X162469328Y-123035538D01*
X162576992Y-123087387D01*
X162576993Y-123087387D01*
X162576996Y-123087389D01*
X162820542Y-123162513D01*
X163072565Y-123200500D01*
X163327429Y-123200500D01*
X163327435Y-123200500D01*
X163402968Y-123189114D01*
X163472189Y-123198586D01*
X163509128Y-123224048D01*
X164059735Y-123774655D01*
X164059764Y-123774686D01*
X164202217Y-123917139D01*
X164366080Y-124026628D01*
X164366086Y-124026632D01*
X164469360Y-124069409D01*
X164548164Y-124102051D01*
X164644812Y-124121275D01*
X164693135Y-124130887D01*
X164741458Y-124140500D01*
X164741459Y-124140500D01*
X164741460Y-124140500D01*
X164938540Y-124140500D01*
X172255500Y-124140500D01*
X172322539Y-124160185D01*
X172368294Y-124212989D01*
X172379500Y-124264500D01*
X172379500Y-124982870D01*
X172379501Y-124982876D01*
X172385908Y-125042483D01*
X172436202Y-125177328D01*
X172436206Y-125177335D01*
X172522452Y-125292544D01*
X172522455Y-125292547D01*
X172637664Y-125378793D01*
X172637671Y-125378797D01*
X172772517Y-125429091D01*
X172772516Y-125429091D01*
X172779444Y-125429835D01*
X172832127Y-125435500D01*
X174427872Y-125435499D01*
X174487483Y-125429091D01*
X174516367Y-125418317D01*
X174559700Y-125410500D01*
X177018542Y-125410500D01*
X177037870Y-125406655D01*
X177115188Y-125391275D01*
X177211836Y-125372051D01*
X177265165Y-125349961D01*
X177393914Y-125296632D01*
X177557782Y-125187139D01*
X177697139Y-125047782D01*
X177697139Y-125047780D01*
X177707347Y-125037573D01*
X177707348Y-125037570D01*
X184779354Y-117965565D01*
X184840675Y-117932082D01*
X184885510Y-117930633D01*
X185017319Y-117950500D01*
X185017320Y-117950500D01*
X185282680Y-117950500D01*
X185282681Y-117950500D01*
X185282688Y-117950499D01*
X185545073Y-117910951D01*
X185545074Y-117910950D01*
X185545078Y-117910950D01*
X185798650Y-117832734D01*
X186037733Y-117717598D01*
X186256984Y-117568114D01*
X186451508Y-117387623D01*
X186616958Y-117180155D01*
X186749639Y-116950345D01*
X186760073Y-116923759D01*
X186802887Y-116868548D01*
X186868757Y-116845247D01*
X186936768Y-116861257D01*
X186985326Y-116911495D01*
X186999500Y-116969064D01*
X186999500Y-120484217D01*
X186979815Y-120551256D01*
X186963181Y-120571898D01*
X185541897Y-121993181D01*
X185480574Y-122026666D01*
X185454216Y-122029500D01*
X183832129Y-122029500D01*
X183832123Y-122029501D01*
X183772516Y-122035908D01*
X183637671Y-122086202D01*
X183637664Y-122086206D01*
X183522455Y-122172452D01*
X183522452Y-122172455D01*
X183436206Y-122287664D01*
X183436202Y-122287671D01*
X183385908Y-122422517D01*
X183379501Y-122482116D01*
X183379500Y-122482135D01*
X183379500Y-125117870D01*
X183379501Y-125117876D01*
X183385908Y-125177483D01*
X183436202Y-125312328D01*
X183436206Y-125312335D01*
X183522452Y-125427544D01*
X183522455Y-125427547D01*
X183637664Y-125513793D01*
X183637671Y-125513797D01*
X183772517Y-125564091D01*
X183772516Y-125564091D01*
X183779444Y-125564835D01*
X183832127Y-125570500D01*
X186467872Y-125570499D01*
X186527483Y-125564091D01*
X186662331Y-125513796D01*
X186777546Y-125427546D01*
X186863796Y-125312331D01*
X186914091Y-125177483D01*
X186920500Y-125117873D01*
X186920499Y-123800001D01*
X205244390Y-123800001D01*
X205264804Y-124085433D01*
X205325628Y-124365037D01*
X205325630Y-124365043D01*
X205325631Y-124365046D01*
X205416738Y-124609312D01*
X205425635Y-124633166D01*
X205562770Y-124884309D01*
X205562775Y-124884317D01*
X205734254Y-125113387D01*
X205734270Y-125113405D01*
X205936591Y-125315726D01*
X205936595Y-125315729D01*
X205936605Y-125315739D01*
X205949812Y-125325625D01*
X205991682Y-125381558D01*
X205999500Y-125424891D01*
X205999500Y-127964867D01*
X205981040Y-128029961D01*
X205965187Y-128055663D01*
X205965186Y-128055665D01*
X205965186Y-128055666D01*
X205910001Y-128222203D01*
X205910001Y-128222204D01*
X205910000Y-128222204D01*
X205899500Y-128324983D01*
X205899500Y-129675001D01*
X205899501Y-129675018D01*
X205910000Y-129777796D01*
X205910001Y-129777799D01*
X205965185Y-129944331D01*
X205965187Y-129944336D01*
X205988870Y-129982732D01*
X206057288Y-130093656D01*
X206181344Y-130217712D01*
X206330666Y-130309814D01*
X206497203Y-130364999D01*
X206599991Y-130375500D01*
X207400008Y-130375499D01*
X207400016Y-130375498D01*
X207400019Y-130375498D01*
X207456302Y-130369748D01*
X207502797Y-130364999D01*
X207669334Y-130309814D01*
X207818656Y-130217712D01*
X207942712Y-130093656D01*
X207982310Y-130029456D01*
X208034258Y-129982732D01*
X208103220Y-129971509D01*
X208167303Y-129999352D01*
X208175530Y-130006872D01*
X208283072Y-130114414D01*
X208423212Y-130216232D01*
X208577555Y-130294873D01*
X208742299Y-130348402D01*
X208913389Y-130375500D01*
X208913390Y-130375500D01*
X209086610Y-130375500D01*
X209086611Y-130375500D01*
X209257701Y-130348402D01*
X209422445Y-130294873D01*
X209576788Y-130216232D01*
X209716928Y-130114414D01*
X209839414Y-129991928D01*
X209941232Y-129851788D01*
X210019873Y-129697445D01*
X210073402Y-129532701D01*
X210100500Y-129361611D01*
X210100500Y-129361608D01*
X210100883Y-129356748D01*
X210103101Y-129356922D01*
X210120185Y-129298743D01*
X210136819Y-129278101D01*
X211227137Y-128187784D01*
X211227137Y-128187783D01*
X211227140Y-128187781D01*
X211336632Y-128023914D01*
X211412052Y-127841835D01*
X211450500Y-127648540D01*
X211450500Y-127451459D01*
X211450500Y-117986564D01*
X211470185Y-117919525D01*
X211515072Y-117877732D01*
X211534315Y-117867226D01*
X211763395Y-117695739D01*
X211965739Y-117493395D01*
X212137226Y-117264315D01*
X212274367Y-117013161D01*
X212374369Y-116745046D01*
X212415709Y-116555009D01*
X212435195Y-116465433D01*
X212435195Y-116465432D01*
X212435196Y-116465428D01*
X212455610Y-116180000D01*
X212435196Y-115894572D01*
X212407812Y-115768691D01*
X212374371Y-115614962D01*
X212374370Y-115614960D01*
X212374369Y-115614954D01*
X212274367Y-115346839D01*
X212159702Y-115136847D01*
X212137229Y-115095690D01*
X212137224Y-115095682D01*
X211965745Y-114866612D01*
X211965729Y-114866594D01*
X211763405Y-114664270D01*
X211763387Y-114664254D01*
X211534317Y-114492775D01*
X211534309Y-114492770D01*
X211283166Y-114355635D01*
X211283167Y-114355635D01*
X211135845Y-114300687D01*
X211015046Y-114255631D01*
X211015043Y-114255630D01*
X211015037Y-114255628D01*
X210735433Y-114194804D01*
X210450001Y-114174390D01*
X210449999Y-114174390D01*
X210164566Y-114194804D01*
X209884962Y-114255628D01*
X209616833Y-114355635D01*
X209365690Y-114492770D01*
X209365682Y-114492775D01*
X209136612Y-114664254D01*
X209136594Y-114664270D01*
X208934270Y-114866594D01*
X208934254Y-114866612D01*
X208762775Y-115095682D01*
X208762770Y-115095690D01*
X208625635Y-115346833D01*
X208525628Y-115614962D01*
X208464804Y-115894566D01*
X208444390Y-116179998D01*
X208444390Y-116180001D01*
X208464804Y-116465433D01*
X208525628Y-116745037D01*
X208525630Y-116745043D01*
X208525631Y-116745046D01*
X208616738Y-116989312D01*
X208625635Y-117013166D01*
X208762770Y-117264309D01*
X208762775Y-117264317D01*
X208934254Y-117493387D01*
X208934270Y-117493405D01*
X209136594Y-117695729D01*
X209136612Y-117695745D01*
X209365680Y-117867223D01*
X209365682Y-117867224D01*
X209365685Y-117867226D01*
X209384926Y-117877732D01*
X209434331Y-117927134D01*
X209449500Y-117986564D01*
X209449500Y-123346340D01*
X209429815Y-123413379D01*
X209377011Y-123459134D01*
X209307853Y-123469078D01*
X209244297Y-123440053D01*
X209206523Y-123381275D01*
X209204334Y-123372698D01*
X209174371Y-123234962D01*
X209174370Y-123234960D01*
X209174369Y-123234954D01*
X209074367Y-122966839D01*
X208937226Y-122715685D01*
X208937224Y-122715682D01*
X208765745Y-122486612D01*
X208765729Y-122486594D01*
X208563405Y-122284270D01*
X208563387Y-122284254D01*
X208334317Y-122112775D01*
X208334309Y-122112770D01*
X208083166Y-121975635D01*
X208083167Y-121975635D01*
X207935848Y-121920688D01*
X207815046Y-121875631D01*
X207815043Y-121875630D01*
X207815037Y-121875628D01*
X207535433Y-121814804D01*
X207250001Y-121794390D01*
X207249999Y-121794390D01*
X206964566Y-121814804D01*
X206684962Y-121875628D01*
X206416833Y-121975635D01*
X206165690Y-122112770D01*
X206165682Y-122112775D01*
X205936612Y-122284254D01*
X205936594Y-122284270D01*
X205734270Y-122486594D01*
X205734254Y-122486612D01*
X205562775Y-122715682D01*
X205562770Y-122715690D01*
X205425635Y-122966833D01*
X205325628Y-123234962D01*
X205264804Y-123514566D01*
X205244390Y-123799998D01*
X205244390Y-123800001D01*
X186920499Y-123800001D01*
X186920499Y-123495782D01*
X186940184Y-123428744D01*
X186956818Y-123408102D01*
X187853215Y-122511706D01*
X188777140Y-121587781D01*
X188886632Y-121423914D01*
X188962052Y-121241835D01*
X189000500Y-121048540D01*
X189000500Y-120851459D01*
X189000500Y-116180001D01*
X202044390Y-116180001D01*
X202064804Y-116465433D01*
X202125628Y-116745037D01*
X202125630Y-116745043D01*
X202125631Y-116745046D01*
X202216738Y-116989312D01*
X202225635Y-117013166D01*
X202362770Y-117264309D01*
X202362775Y-117264317D01*
X202534254Y-117493387D01*
X202534270Y-117493405D01*
X202736594Y-117695729D01*
X202736612Y-117695745D01*
X202965682Y-117867224D01*
X202965690Y-117867229D01*
X203216833Y-118004364D01*
X203216832Y-118004364D01*
X203216836Y-118004365D01*
X203216839Y-118004367D01*
X203484954Y-118104369D01*
X203484960Y-118104370D01*
X203484962Y-118104371D01*
X203764566Y-118165195D01*
X203764568Y-118165195D01*
X203764572Y-118165196D01*
X204018220Y-118183337D01*
X204049999Y-118185610D01*
X204050000Y-118185610D01*
X204050001Y-118185610D01*
X204078595Y-118183564D01*
X204335428Y-118165196D01*
X204615046Y-118104369D01*
X204883161Y-118004367D01*
X205134315Y-117867226D01*
X205363395Y-117695739D01*
X205565739Y-117493395D01*
X205737226Y-117264315D01*
X205874367Y-117013161D01*
X205974369Y-116745046D01*
X206015709Y-116555009D01*
X206035195Y-116465433D01*
X206035195Y-116465432D01*
X206035196Y-116465428D01*
X206055610Y-116180000D01*
X206035196Y-115894572D01*
X206007812Y-115768691D01*
X205974371Y-115614962D01*
X205974370Y-115614960D01*
X205974369Y-115614954D01*
X205874367Y-115346839D01*
X205759702Y-115136847D01*
X205737229Y-115095690D01*
X205737224Y-115095682D01*
X205565745Y-114866612D01*
X205565729Y-114866594D01*
X205363405Y-114664270D01*
X205363387Y-114664254D01*
X205134317Y-114492775D01*
X205134309Y-114492770D01*
X204883166Y-114355635D01*
X204883167Y-114355635D01*
X204735845Y-114300687D01*
X204615046Y-114255631D01*
X204615043Y-114255630D01*
X204615037Y-114255628D01*
X204335433Y-114194804D01*
X204050001Y-114174390D01*
X204049999Y-114174390D01*
X203764566Y-114194804D01*
X203484962Y-114255628D01*
X203216833Y-114355635D01*
X202965690Y-114492770D01*
X202965682Y-114492775D01*
X202736612Y-114664254D01*
X202736594Y-114664270D01*
X202534270Y-114866594D01*
X202534254Y-114866612D01*
X202362775Y-115095682D01*
X202362770Y-115095690D01*
X202225635Y-115346833D01*
X202125628Y-115614962D01*
X202064804Y-115894566D01*
X202044390Y-116179998D01*
X202044390Y-116180001D01*
X189000500Y-116180001D01*
X189000500Y-112965782D01*
X189020185Y-112898743D01*
X189036819Y-112878101D01*
X189777137Y-112137784D01*
X189777137Y-112137783D01*
X189777140Y-112137781D01*
X189886632Y-111973914D01*
X189962052Y-111791835D01*
X190000501Y-111598540D01*
X190000501Y-111401459D01*
X190000501Y-111396349D01*
X190000500Y-111396323D01*
X190000500Y-104401463D01*
X190000499Y-104401455D01*
X189998751Y-104392663D01*
X189998751Y-104392662D01*
X189962052Y-104208169D01*
X189962051Y-104208168D01*
X189962051Y-104208164D01*
X189913866Y-104091836D01*
X189891288Y-104037328D01*
X189886635Y-104026093D01*
X189886634Y-104026092D01*
X189886632Y-104026086D01*
X189777139Y-103862218D01*
X189637782Y-103722861D01*
X189637781Y-103722860D01*
X186284208Y-100369288D01*
X186284206Y-100369285D01*
X186284206Y-100369286D01*
X186277139Y-100362219D01*
X186277139Y-100362218D01*
X186137782Y-100222861D01*
X186137781Y-100222860D01*
X186137780Y-100222859D01*
X185973920Y-100113371D01*
X185973911Y-100113366D01*
X185901315Y-100083296D01*
X185845165Y-100060038D01*
X185791836Y-100037949D01*
X185791832Y-100037948D01*
X185791828Y-100037946D01*
X185695188Y-100018724D01*
X185598544Y-99999500D01*
X185598541Y-99999500D01*
X181401459Y-99999500D01*
X181401455Y-99999500D01*
X181304812Y-100018724D01*
X181208167Y-100037947D01*
X181208161Y-100037949D01*
X181154834Y-100060037D01*
X181154834Y-100060038D01*
X181109315Y-100078892D01*
X181026089Y-100113366D01*
X181026079Y-100113371D01*
X180862219Y-100222859D01*
X180792540Y-100292538D01*
X180722861Y-100362218D01*
X180722858Y-100362221D01*
X178362219Y-102722861D01*
X178062221Y-103022858D01*
X178062218Y-103022861D01*
X177992538Y-103092540D01*
X177922859Y-103162219D01*
X177813371Y-103326080D01*
X177813364Y-103326093D01*
X177779164Y-103408662D01*
X177779164Y-103408663D01*
X177737949Y-103508164D01*
X177721839Y-103589156D01*
X177699500Y-103701456D01*
X177699500Y-104610858D01*
X177679815Y-104677897D01*
X177627011Y-104723652D01*
X177618847Y-104727034D01*
X177607669Y-104731204D01*
X177607664Y-104731206D01*
X177492455Y-104817452D01*
X177492452Y-104817455D01*
X177406206Y-104932664D01*
X177406202Y-104932671D01*
X177355910Y-105067513D01*
X177355909Y-105067517D01*
X177349500Y-105127127D01*
X177349500Y-105127134D01*
X177349500Y-105127135D01*
X177349500Y-105127136D01*
X177349501Y-105645500D01*
X177329817Y-105712539D01*
X177277013Y-105758294D01*
X177225501Y-105769500D01*
X137461454Y-105769500D01*
X137429391Y-105775876D01*
X137429392Y-105775877D01*
X137268170Y-105807946D01*
X137268164Y-105807948D01*
X137086088Y-105883366D01*
X137086079Y-105883371D01*
X136922219Y-105992859D01*
X136922215Y-105992862D01*
X135692219Y-107222861D01*
X134337180Y-108577899D01*
X134275857Y-108611384D01*
X134206165Y-108606400D01*
X134150232Y-108564528D01*
X134125815Y-108499064D01*
X134125499Y-108490218D01*
X134125499Y-107127129D01*
X134125498Y-107127123D01*
X134125497Y-107127116D01*
X134119091Y-107067517D01*
X134068796Y-106932669D01*
X133991421Y-106829309D01*
X133967004Y-106763848D01*
X133981855Y-106695575D01*
X133991416Y-106680696D01*
X134068796Y-106577331D01*
X134119091Y-106442483D01*
X134125500Y-106382873D01*
X134125499Y-104587128D01*
X134119091Y-104527517D01*
X134072074Y-104401459D01*
X134068797Y-104392671D01*
X134068795Y-104392668D01*
X133991421Y-104289309D01*
X133967004Y-104223848D01*
X133981855Y-104155575D01*
X133991416Y-104140696D01*
X134068796Y-104037331D01*
X134119091Y-103902483D01*
X134125500Y-103842873D01*
X134125499Y-102047128D01*
X134119091Y-101987517D01*
X134068796Y-101852669D01*
X133991421Y-101749309D01*
X133967004Y-101683848D01*
X133981855Y-101615575D01*
X133991416Y-101600696D01*
X134068796Y-101497331D01*
X134119091Y-101362483D01*
X134125500Y-101302873D01*
X134125499Y-99507128D01*
X134119091Y-99447517D01*
X134068796Y-99312669D01*
X133991421Y-99209309D01*
X133967004Y-99143848D01*
X133981855Y-99075575D01*
X133991416Y-99060696D01*
X134068796Y-98957331D01*
X134119091Y-98822483D01*
X134125500Y-98762873D01*
X134125499Y-96967128D01*
X134119091Y-96907517D01*
X134068796Y-96772669D01*
X133991421Y-96669309D01*
X133967004Y-96603848D01*
X133981855Y-96535575D01*
X133991416Y-96520696D01*
X134068796Y-96417331D01*
X134119091Y-96282483D01*
X134125500Y-96222873D01*
X134125499Y-94427128D01*
X134119091Y-94367517D01*
X134068796Y-94232669D01*
X133991421Y-94129309D01*
X133967004Y-94063848D01*
X133981855Y-93995575D01*
X133991416Y-93980696D01*
X134068796Y-93877331D01*
X134119091Y-93742483D01*
X134125500Y-93682873D01*
X134125499Y-91887128D01*
X134119091Y-91827517D01*
X134118748Y-91826598D01*
X134068797Y-91692671D01*
X134068795Y-91692668D01*
X134053231Y-91671877D01*
X133991421Y-91589309D01*
X133967004Y-91523848D01*
X133981855Y-91455575D01*
X133991416Y-91440696D01*
X134068796Y-91337331D01*
X134119091Y-91202483D01*
X134125500Y-91142873D01*
X134125499Y-89347128D01*
X134119091Y-89287517D01*
X134068796Y-89152669D01*
X133991421Y-89049309D01*
X133967004Y-88983848D01*
X133981855Y-88915575D01*
X133991416Y-88900696D01*
X134068796Y-88797331D01*
X134119091Y-88662483D01*
X134125500Y-88602873D01*
X134125499Y-86807128D01*
X134119091Y-86747517D01*
X134085901Y-86658531D01*
X134068797Y-86612671D01*
X134068793Y-86612664D01*
X133982547Y-86497455D01*
X133982544Y-86497452D01*
X133867335Y-86411206D01*
X133867328Y-86411202D01*
X133732482Y-86360908D01*
X133732483Y-86360908D01*
X133672883Y-86354501D01*
X133672881Y-86354500D01*
X133672873Y-86354500D01*
X133672865Y-86354500D01*
X131039385Y-86354500D01*
X131028578Y-86354028D01*
X130975001Y-86349341D01*
X130974997Y-86349341D01*
X130921419Y-86354028D01*
X130910613Y-86354500D01*
X130077129Y-86354500D01*
X130077123Y-86354501D01*
X130017516Y-86360908D01*
X129882671Y-86411202D01*
X129882664Y-86411206D01*
X129767455Y-86497452D01*
X129767452Y-86497455D01*
X129681206Y-86612664D01*
X129681202Y-86612671D01*
X129630908Y-86747517D01*
X129625149Y-86801087D01*
X129624501Y-86807123D01*
X129624500Y-86807135D01*
X129624500Y-87640616D01*
X129624028Y-87651423D01*
X129619341Y-87704997D01*
X129619341Y-87705002D01*
X129624028Y-87758576D01*
X129624500Y-87769383D01*
X129624500Y-88602870D01*
X129624501Y-88602876D01*
X129630908Y-88662483D01*
X129681202Y-88797328D01*
X129681203Y-88797330D01*
X129758578Y-88900689D01*
X129782995Y-88966153D01*
X129768144Y-89034426D01*
X129758578Y-89049311D01*
X129681203Y-89152669D01*
X129681202Y-89152671D01*
X129630908Y-89287517D01*
X129624501Y-89347116D01*
X129624501Y-89347123D01*
X129624500Y-89347135D01*
X129624500Y-90180616D01*
X129624028Y-90191423D01*
X129619341Y-90244997D01*
X129619341Y-90245002D01*
X129624028Y-90298576D01*
X129624500Y-90309383D01*
X129624500Y-91142870D01*
X129624501Y-91142876D01*
X129630908Y-91202483D01*
X129681202Y-91337328D01*
X129681203Y-91337330D01*
X129758578Y-91440689D01*
X129782995Y-91506153D01*
X129768144Y-91574426D01*
X129758578Y-91589311D01*
X129681203Y-91692669D01*
X129681202Y-91692671D01*
X129630908Y-91827517D01*
X129624501Y-91887116D01*
X129624501Y-91887123D01*
X129624500Y-91887135D01*
X129624500Y-93682870D01*
X129624501Y-93682876D01*
X129630908Y-93742483D01*
X129681202Y-93877328D01*
X129681203Y-93877330D01*
X129758578Y-93980689D01*
X129782995Y-94046153D01*
X129768144Y-94114426D01*
X129758578Y-94129311D01*
X129681203Y-94232669D01*
X129681202Y-94232671D01*
X129630908Y-94367517D01*
X129624501Y-94427116D01*
X129624501Y-94427123D01*
X129624500Y-94427135D01*
X129624500Y-95260616D01*
X129624028Y-95271423D01*
X129619341Y-95324997D01*
X129619341Y-95325002D01*
X129624028Y-95378576D01*
X129624500Y-95389383D01*
X129624500Y-96222870D01*
X129624501Y-96222876D01*
X129630908Y-96282483D01*
X129681202Y-96417328D01*
X129681203Y-96417330D01*
X129758578Y-96520689D01*
X129782995Y-96586153D01*
X129768144Y-96654426D01*
X129758578Y-96669311D01*
X129681203Y-96772669D01*
X129681202Y-96772671D01*
X129630908Y-96907517D01*
X129624501Y-96967116D01*
X129624501Y-96967123D01*
X129624500Y-96967135D01*
X129624500Y-97800616D01*
X129624028Y-97811423D01*
X129619341Y-97864997D01*
X129619341Y-97865002D01*
X129624028Y-97918576D01*
X129624500Y-97929383D01*
X129624500Y-98762870D01*
X129624501Y-98762876D01*
X129630908Y-98822483D01*
X129681202Y-98957328D01*
X129681203Y-98957330D01*
X129758578Y-99060689D01*
X129782995Y-99126153D01*
X129768144Y-99194426D01*
X129758578Y-99209311D01*
X129681203Y-99312669D01*
X129681202Y-99312671D01*
X129630908Y-99447517D01*
X129624501Y-99507116D01*
X129624501Y-99507123D01*
X129624500Y-99507135D01*
X129624500Y-100340616D01*
X129624028Y-100351423D01*
X129619341Y-100404997D01*
X129619341Y-100405002D01*
X129624028Y-100458576D01*
X129624500Y-100469383D01*
X129624500Y-101302870D01*
X129624501Y-101302876D01*
X129630908Y-101362483D01*
X129681202Y-101497328D01*
X129681203Y-101497330D01*
X129758578Y-101600689D01*
X129782995Y-101666153D01*
X129768144Y-101734426D01*
X129758578Y-101749311D01*
X129681203Y-101852669D01*
X129681202Y-101852671D01*
X129630908Y-101987517D01*
X129625608Y-102036819D01*
X129624501Y-102047123D01*
X129624500Y-102047135D01*
X129624500Y-102880616D01*
X129624028Y-102891423D01*
X129619341Y-102944997D01*
X129619341Y-102945002D01*
X129624028Y-102998576D01*
X129624500Y-103009383D01*
X129624500Y-103842870D01*
X129624501Y-103842876D01*
X129630908Y-103902483D01*
X129681202Y-104037328D01*
X129681203Y-104037330D01*
X129758578Y-104140689D01*
X129782995Y-104206153D01*
X129768144Y-104274426D01*
X129758578Y-104289311D01*
X129681203Y-104392669D01*
X129681202Y-104392671D01*
X129630908Y-104527517D01*
X129624501Y-104587116D01*
X129624501Y-104587123D01*
X129624500Y-104587135D01*
X129624500Y-106382870D01*
X129624501Y-106382876D01*
X129630908Y-106442483D01*
X129681202Y-106577328D01*
X129681203Y-106577330D01*
X129758578Y-106680689D01*
X129782995Y-106746153D01*
X129768144Y-106814426D01*
X129758578Y-106829311D01*
X129681203Y-106932669D01*
X129681202Y-106932671D01*
X129630908Y-107067517D01*
X129624501Y-107127116D01*
X129624501Y-107127123D01*
X129624500Y-107127135D01*
X129624500Y-107960616D01*
X129624028Y-107971423D01*
X129619341Y-108024997D01*
X129619341Y-108025002D01*
X129624028Y-108078576D01*
X129624500Y-108089383D01*
X129624500Y-108922870D01*
X129624501Y-108922876D01*
X129630908Y-108982483D01*
X129681202Y-109117328D01*
X129681203Y-109117330D01*
X129758578Y-109220689D01*
X129782995Y-109286153D01*
X129768144Y-109354426D01*
X129758578Y-109369311D01*
X129681203Y-109472669D01*
X129681202Y-109472671D01*
X129630908Y-109607517D01*
X129624501Y-109667116D01*
X129624501Y-109667123D01*
X129624500Y-109667135D01*
X129624500Y-110500616D01*
X129624028Y-110511423D01*
X129619341Y-110564997D01*
X129619341Y-110565002D01*
X129624028Y-110618576D01*
X129624500Y-110629383D01*
X129624500Y-111462870D01*
X129624501Y-111462876D01*
X129630908Y-111522483D01*
X129681202Y-111657328D01*
X129681203Y-111657330D01*
X129758578Y-111760689D01*
X129782995Y-111826153D01*
X129768144Y-111894426D01*
X129758578Y-111909311D01*
X129681203Y-112012669D01*
X129681202Y-112012671D01*
X129630908Y-112147517D01*
X129624501Y-112207116D01*
X129624500Y-112207129D01*
X129624500Y-113040616D01*
X129624028Y-113051423D01*
X129619341Y-113104997D01*
X129619341Y-113105002D01*
X129624028Y-113158576D01*
X129624500Y-113169383D01*
X129624500Y-114002870D01*
X129624501Y-114002876D01*
X129630908Y-114062483D01*
X129681202Y-114197328D01*
X129681203Y-114197330D01*
X129681204Y-114197331D01*
X129758576Y-114300687D01*
X129758578Y-114300689D01*
X129782995Y-114366153D01*
X129768144Y-114434426D01*
X129758578Y-114449309D01*
X129721006Y-114499500D01*
X129681204Y-114552669D01*
X129630908Y-114687517D01*
X129625002Y-114742454D01*
X129624501Y-114747123D01*
X129624500Y-114747135D01*
X129624500Y-115580616D01*
X129624028Y-115591423D01*
X129619341Y-115644997D01*
X129619341Y-115645002D01*
X129624028Y-115698576D01*
X129624500Y-115709383D01*
X129624500Y-116542870D01*
X129624501Y-116542876D01*
X129630908Y-116602483D01*
X129681202Y-116737328D01*
X129681203Y-116737330D01*
X129758578Y-116840689D01*
X129782995Y-116906153D01*
X129768144Y-116974426D01*
X129758578Y-116989311D01*
X129681203Y-117092669D01*
X129681202Y-117092671D01*
X129630908Y-117227517D01*
X129626952Y-117264317D01*
X129624501Y-117287123D01*
X129624500Y-117287135D01*
X129624500Y-119082870D01*
X129624501Y-119082876D01*
X129630908Y-119142483D01*
X129681202Y-119277328D01*
X129681203Y-119277330D01*
X129758578Y-119380689D01*
X129782995Y-119446153D01*
X129768144Y-119514426D01*
X129758578Y-119529311D01*
X129681203Y-119632669D01*
X129681202Y-119632671D01*
X129630908Y-119767517D01*
X129627470Y-119799500D01*
X129624501Y-119827123D01*
X129624500Y-119827135D01*
X129624500Y-120660616D01*
X129624028Y-120671423D01*
X129619341Y-120724997D01*
X129619341Y-120725002D01*
X129624028Y-120778576D01*
X129624500Y-120789383D01*
X129624500Y-121622870D01*
X129624501Y-121622876D01*
X129630908Y-121682483D01*
X129681202Y-121817328D01*
X129681203Y-121817330D01*
X129758578Y-121920689D01*
X129782995Y-121986153D01*
X129768144Y-122054426D01*
X129758578Y-122069311D01*
X129681203Y-122172669D01*
X129681202Y-122172671D01*
X129630908Y-122307517D01*
X129624501Y-122367116D01*
X129624501Y-122367123D01*
X129624500Y-122367135D01*
X129624500Y-123200616D01*
X129624028Y-123211423D01*
X129619341Y-123264997D01*
X129619341Y-123265002D01*
X129624028Y-123318576D01*
X129624500Y-123329383D01*
X129624500Y-124162870D01*
X129624501Y-124162876D01*
X129630908Y-124222483D01*
X129681202Y-124357328D01*
X129681203Y-124357330D01*
X129758578Y-124460689D01*
X129782995Y-124526153D01*
X129768144Y-124594426D01*
X129758578Y-124609311D01*
X129681203Y-124712669D01*
X129681202Y-124712671D01*
X129630908Y-124847517D01*
X129626952Y-124884317D01*
X129624501Y-124907123D01*
X129624500Y-124907135D01*
X129624500Y-125740616D01*
X129624028Y-125751423D01*
X129619341Y-125804997D01*
X129619341Y-125805002D01*
X129624028Y-125858576D01*
X129624500Y-125869383D01*
X129624500Y-126702870D01*
X129624501Y-126702876D01*
X129630908Y-126762483D01*
X129681202Y-126897328D01*
X129681203Y-126897330D01*
X129758578Y-127000689D01*
X129782995Y-127066153D01*
X129768144Y-127134426D01*
X129758578Y-127149311D01*
X129681203Y-127252669D01*
X129681202Y-127252671D01*
X129630908Y-127387517D01*
X129624501Y-127447116D01*
X129624501Y-127447123D01*
X129624500Y-127447135D01*
X129624500Y-128280616D01*
X129624028Y-128291423D01*
X129619341Y-128344997D01*
X129619341Y-128345002D01*
X129624028Y-128398576D01*
X129624500Y-128409383D01*
X129624500Y-129242870D01*
X129624501Y-129242876D01*
X129630908Y-129302483D01*
X129681202Y-129437328D01*
X129681203Y-129437330D01*
X129758578Y-129540689D01*
X129782995Y-129606153D01*
X129768144Y-129674426D01*
X129758578Y-129689311D01*
X129681203Y-129792669D01*
X129681202Y-129792671D01*
X129630908Y-129927517D01*
X129624501Y-129987116D01*
X129624501Y-129987123D01*
X129624500Y-129987135D01*
X129624500Y-131782870D01*
X129624501Y-131782876D01*
X129630908Y-131842483D01*
X129681202Y-131977328D01*
X129681203Y-131977330D01*
X129758578Y-132080689D01*
X129782995Y-132146153D01*
X129768144Y-132214426D01*
X129758578Y-132229311D01*
X129681203Y-132332669D01*
X129681202Y-132332671D01*
X129630908Y-132467517D01*
X129624501Y-132527116D01*
X129624501Y-132527123D01*
X129624500Y-132527135D01*
X129624500Y-133360616D01*
X129624028Y-133371423D01*
X129619341Y-133424997D01*
X129619341Y-133425002D01*
X129624028Y-133478576D01*
X129624500Y-133489383D01*
X129624500Y-134322870D01*
X129624501Y-134322876D01*
X129630908Y-134382483D01*
X129681202Y-134517328D01*
X129681203Y-134517330D01*
X129758578Y-134620689D01*
X129782995Y-134686153D01*
X129768144Y-134754426D01*
X129758578Y-134769311D01*
X129681203Y-134872669D01*
X129681202Y-134872671D01*
X129630908Y-135007517D01*
X129624501Y-135067116D01*
X129624501Y-135067123D01*
X129624500Y-135067135D01*
X129624500Y-135900616D01*
X129624028Y-135911423D01*
X129619341Y-135964997D01*
X129619341Y-135965002D01*
X125975499Y-135965002D01*
X125975499Y-135799381D01*
X125975971Y-135788578D01*
X125980659Y-135735000D01*
X125980659Y-135734999D01*
X125975971Y-135681418D01*
X125975499Y-135670610D01*
X125975499Y-134837129D01*
X125975498Y-134837123D01*
X125975497Y-134837116D01*
X125969091Y-134777517D01*
X125966030Y-134769311D01*
X125918797Y-134642671D01*
X125918793Y-134642664D01*
X125832547Y-134527455D01*
X125832544Y-134527452D01*
X125717335Y-134441206D01*
X125717328Y-134441202D01*
X125582482Y-134390908D01*
X125582483Y-134390908D01*
X125522883Y-134384501D01*
X125522881Y-134384500D01*
X125522873Y-134384500D01*
X125522865Y-134384500D01*
X124689383Y-134384500D01*
X124678576Y-134384028D01*
X124625002Y-134379341D01*
X124624999Y-134379341D01*
X124589865Y-134382414D01*
X124571421Y-134384028D01*
X124560616Y-134384500D01*
X123727129Y-134384500D01*
X123727123Y-134384501D01*
X123667516Y-134390908D01*
X123532671Y-134441202D01*
X123532669Y-134441203D01*
X123429311Y-134518578D01*
X123363847Y-134542995D01*
X123295574Y-134528144D01*
X123280689Y-134518578D01*
X123177330Y-134441203D01*
X123177328Y-134441202D01*
X123042482Y-134390908D01*
X123042483Y-134390908D01*
X122982883Y-134384501D01*
X122982881Y-134384500D01*
X122982873Y-134384500D01*
X122982864Y-134384500D01*
X121187129Y-134384500D01*
X121187123Y-134384501D01*
X121127516Y-134390908D01*
X120992671Y-134441202D01*
X120992669Y-134441203D01*
X120889311Y-134518578D01*
X120823847Y-134542995D01*
X120755574Y-134528144D01*
X120740689Y-134518578D01*
X120637330Y-134441203D01*
X120637328Y-134441202D01*
X120502482Y-134390908D01*
X120502483Y-134390908D01*
X120442883Y-134384501D01*
X120442881Y-134384500D01*
X120442873Y-134384500D01*
X120442865Y-134384500D01*
X119609383Y-134384500D01*
X119598576Y-134384028D01*
X119545002Y-134379341D01*
X119544999Y-134379341D01*
X119509865Y-134382414D01*
X119491421Y-134384028D01*
X119480616Y-134384500D01*
X118647129Y-134384500D01*
X118647123Y-134384501D01*
X118587516Y-134390908D01*
X118452671Y-134441202D01*
X118452664Y-134441206D01*
X118337455Y-134527452D01*
X118337452Y-134527455D01*
X118251206Y-134642664D01*
X118251202Y-134642671D01*
X118200908Y-134777517D01*
X118194501Y-134837116D01*
X118194501Y-134837123D01*
X118194500Y-134837135D01*
X118194500Y-135670618D01*
X118194028Y-135681425D01*
X118189341Y-135734997D01*
X118189341Y-135735001D01*
X114545499Y-135735001D01*
X114545499Y-135067129D01*
X114545498Y-135067123D01*
X114545497Y-135067116D01*
X114539091Y-135007517D01*
X114488796Y-134872669D01*
X114411421Y-134769309D01*
X114387004Y-134703848D01*
X114401855Y-134635575D01*
X114411416Y-134620696D01*
X114488796Y-134517331D01*
X114539091Y-134382483D01*
X114545500Y-134322873D01*
X114545499Y-133489383D01*
X114545971Y-133478576D01*
X114550659Y-133425000D01*
X114550659Y-133424999D01*
X114545971Y-133371421D01*
X114545499Y-133360613D01*
X114545499Y-132527129D01*
X114545498Y-132527123D01*
X114545497Y-132527116D01*
X114539091Y-132467517D01*
X114488796Y-132332669D01*
X114411421Y-132229309D01*
X114387004Y-132163848D01*
X114401855Y-132095575D01*
X114411416Y-132080696D01*
X114488796Y-131977331D01*
X114539091Y-131842483D01*
X114545500Y-131782873D01*
X114545499Y-129987128D01*
X114539091Y-129927517D01*
X114513212Y-129858133D01*
X114488797Y-129792671D01*
X114488795Y-129792668D01*
X114477664Y-129777799D01*
X114411421Y-129689309D01*
X114387004Y-129623848D01*
X114401855Y-129555575D01*
X114411416Y-129540696D01*
X114488796Y-129437331D01*
X114539091Y-129302483D01*
X114545500Y-129242873D01*
X114545499Y-128409383D01*
X114545971Y-128398576D01*
X114550659Y-128345000D01*
X114550659Y-128344999D01*
X114545971Y-128291421D01*
X114545499Y-128280613D01*
X114545499Y-127447129D01*
X114545498Y-127447123D01*
X114545497Y-127447116D01*
X114539091Y-127387517D01*
X114488796Y-127252669D01*
X114411421Y-127149309D01*
X114387004Y-127083848D01*
X114401855Y-127015575D01*
X114411416Y-127000696D01*
X114488796Y-126897331D01*
X114539091Y-126762483D01*
X114545500Y-126702873D01*
X114545499Y-125869383D01*
X114545971Y-125858576D01*
X114550659Y-125805000D01*
X114550659Y-125804999D01*
X114545971Y-125751421D01*
X114545499Y-125740613D01*
X114545499Y-124907129D01*
X114545498Y-124907123D01*
X114545497Y-124907116D01*
X114539091Y-124847517D01*
X114488796Y-124712669D01*
X114411421Y-124609309D01*
X114387004Y-124543848D01*
X114401855Y-124475575D01*
X114411416Y-124460696D01*
X114488796Y-124357331D01*
X114539091Y-124222483D01*
X114539091Y-124222482D01*
X114539092Y-124222480D01*
X114541800Y-124197282D01*
X114545500Y-124162873D01*
X114545499Y-123329383D01*
X114545971Y-123318576D01*
X114550659Y-123265000D01*
X114550659Y-123264999D01*
X114545971Y-123211421D01*
X114545499Y-123200613D01*
X114545499Y-122367129D01*
X114545498Y-122367123D01*
X114545497Y-122367116D01*
X114539091Y-122307517D01*
X114531688Y-122287669D01*
X114488797Y-122172671D01*
X114488795Y-122172668D01*
X114488635Y-122172454D01*
X114411421Y-122069309D01*
X114387004Y-122003848D01*
X114401855Y-121935575D01*
X114411416Y-121920696D01*
X114488796Y-121817331D01*
X114539091Y-121682483D01*
X114545500Y-121622873D01*
X114545499Y-120789383D01*
X114545971Y-120778576D01*
X114550659Y-120725000D01*
X114550659Y-120724999D01*
X114545971Y-120671421D01*
X114545499Y-120660613D01*
X114545499Y-119827129D01*
X114545498Y-119827123D01*
X114545497Y-119827116D01*
X114539091Y-119767517D01*
X114488796Y-119632669D01*
X114411421Y-119529309D01*
X114387004Y-119463848D01*
X114401855Y-119395575D01*
X114411416Y-119380696D01*
X114488796Y-119277331D01*
X114539091Y-119142483D01*
X114545500Y-119082873D01*
X114545499Y-117287128D01*
X114539091Y-117227517D01*
X114529014Y-117200500D01*
X114488797Y-117092671D01*
X114488795Y-117092668D01*
X114484842Y-117087387D01*
X114411421Y-116989309D01*
X114387004Y-116923848D01*
X114401855Y-116855575D01*
X114411416Y-116840696D01*
X114488796Y-116737331D01*
X114539091Y-116602483D01*
X114545500Y-116542873D01*
X114545499Y-115709383D01*
X114545971Y-115698576D01*
X114550659Y-115645000D01*
X114550659Y-115644999D01*
X114545971Y-115591421D01*
X114545499Y-115580613D01*
X114545499Y-114747129D01*
X114545498Y-114747123D01*
X114545497Y-114747116D01*
X114539091Y-114687517D01*
X114530420Y-114664270D01*
X114488796Y-114552669D01*
X114488795Y-114552668D01*
X114478854Y-114539388D01*
X114411421Y-114449309D01*
X114387004Y-114383848D01*
X114401855Y-114315575D01*
X114411416Y-114300696D01*
X114488796Y-114197331D01*
X114539091Y-114062483D01*
X114545500Y-114002873D01*
X114545499Y-113169383D01*
X114545971Y-113158576D01*
X114550659Y-113105000D01*
X114550659Y-113104999D01*
X114545971Y-113051421D01*
X114545499Y-113040613D01*
X114545499Y-112207129D01*
X114545498Y-112207123D01*
X114545497Y-112207116D01*
X114539091Y-112147517D01*
X114535459Y-112137780D01*
X114488797Y-112012671D01*
X114488795Y-112012668D01*
X114459788Y-111973920D01*
X114411421Y-111909309D01*
X114387004Y-111843848D01*
X114401855Y-111775575D01*
X114411416Y-111760696D01*
X114488796Y-111657331D01*
X114539091Y-111522483D01*
X114545500Y-111462873D01*
X114545499Y-110629383D01*
X114545971Y-110618576D01*
X114550659Y-110565000D01*
X114550659Y-110564999D01*
X114545971Y-110511421D01*
X114545499Y-110500613D01*
X114545499Y-109667129D01*
X114545498Y-109667123D01*
X114545497Y-109667116D01*
X114539091Y-109607517D01*
X114488796Y-109472669D01*
X114411421Y-109369309D01*
X114387004Y-109303848D01*
X114401855Y-109235575D01*
X114411416Y-109220696D01*
X114488796Y-109117331D01*
X114539091Y-108982483D01*
X114545500Y-108922873D01*
X114545499Y-108089383D01*
X114545971Y-108078576D01*
X114550659Y-108025000D01*
X114550659Y-108024999D01*
X114545971Y-107971421D01*
X114545499Y-107960613D01*
X114545499Y-107127129D01*
X114545498Y-107127123D01*
X114545497Y-107127116D01*
X114539091Y-107067517D01*
X114488796Y-106932669D01*
X114411421Y-106829309D01*
X114387004Y-106763848D01*
X114401855Y-106695575D01*
X114411416Y-106680696D01*
X114488796Y-106577331D01*
X114539091Y-106442483D01*
X114545500Y-106382873D01*
X114545499Y-104587128D01*
X114539091Y-104527517D01*
X114492074Y-104401459D01*
X114488797Y-104392671D01*
X114488795Y-104392668D01*
X114411421Y-104289309D01*
X114387004Y-104223848D01*
X114401855Y-104155575D01*
X114411416Y-104140696D01*
X114488796Y-104037331D01*
X114539091Y-103902483D01*
X114545500Y-103842873D01*
X114545499Y-103009383D01*
X114545971Y-102998576D01*
X114550659Y-102945000D01*
X114550659Y-102944999D01*
X114545971Y-102891421D01*
X114545499Y-102880613D01*
X114545499Y-102047129D01*
X114545498Y-102047123D01*
X114545497Y-102047116D01*
X114539091Y-101987517D01*
X114488796Y-101852669D01*
X114411421Y-101749309D01*
X114387004Y-101683848D01*
X114401855Y-101615575D01*
X114411416Y-101600696D01*
X114488796Y-101497331D01*
X114539091Y-101362483D01*
X114545500Y-101302873D01*
X114545499Y-100469383D01*
X114545971Y-100458576D01*
X114550659Y-100405000D01*
X114550659Y-100404999D01*
X114545971Y-100351421D01*
X114545499Y-100340613D01*
X114545499Y-99507129D01*
X114545498Y-99507123D01*
X114545497Y-99507116D01*
X114539091Y-99447517D01*
X114488796Y-99312669D01*
X114411421Y-99209309D01*
X114387004Y-99143848D01*
X114401855Y-99075575D01*
X114411416Y-99060696D01*
X114488796Y-98957331D01*
X114539091Y-98822483D01*
X114545500Y-98762873D01*
X114545499Y-97929383D01*
X114545971Y-97918576D01*
X114550659Y-97865000D01*
X114550659Y-97864999D01*
X114545971Y-97811421D01*
X114545499Y-97800613D01*
X114545499Y-96967129D01*
X114545498Y-96967123D01*
X114545497Y-96967116D01*
X114539091Y-96907517D01*
X114488796Y-96772669D01*
X114411421Y-96669309D01*
X114387004Y-96603848D01*
X114401855Y-96535575D01*
X114411416Y-96520696D01*
X114488796Y-96417331D01*
X114539091Y-96282483D01*
X114545500Y-96222873D01*
X114545499Y-95389383D01*
X114545971Y-95378576D01*
X114550659Y-95325000D01*
X114550659Y-95324999D01*
X114545971Y-95271421D01*
X114545499Y-95260613D01*
X114545499Y-94427129D01*
X114545498Y-94427123D01*
X114545497Y-94427116D01*
X114539091Y-94367517D01*
X114488796Y-94232669D01*
X114411421Y-94129309D01*
X114387004Y-94063848D01*
X114401855Y-93995575D01*
X114411416Y-93980696D01*
X114488796Y-93877331D01*
X114539091Y-93742483D01*
X114545500Y-93682873D01*
X114545499Y-91887128D01*
X114539091Y-91827517D01*
X114538748Y-91826598D01*
X114488797Y-91692671D01*
X114488795Y-91692668D01*
X114473231Y-91671877D01*
X114411421Y-91589309D01*
X114387004Y-91523848D01*
X114401855Y-91455575D01*
X114411416Y-91440696D01*
X114488796Y-91337331D01*
X114539091Y-91202483D01*
X114545500Y-91142873D01*
X114545500Y-90865002D01*
X118404723Y-90865002D01*
X118423793Y-91082975D01*
X118423793Y-91082979D01*
X118480422Y-91294322D01*
X118480424Y-91294326D01*
X118480425Y-91294330D01*
X118500477Y-91337331D01*
X118572897Y-91492638D01*
X118588555Y-91515000D01*
X118698402Y-91671877D01*
X118853123Y-91826598D01*
X119032361Y-91952102D01*
X119230670Y-92044575D01*
X119442023Y-92101207D01*
X119624926Y-92117208D01*
X119659998Y-92120277D01*
X119660000Y-92120277D01*
X119660002Y-92120277D01*
X119688254Y-92117805D01*
X119877977Y-92101207D01*
X120089330Y-92044575D01*
X120287639Y-91952102D01*
X120466877Y-91826598D01*
X120621598Y-91671877D01*
X120747102Y-91492639D01*
X120839575Y-91294330D01*
X120896207Y-91082977D01*
X120915277Y-90865002D01*
X123254723Y-90865002D01*
X123273793Y-91082975D01*
X123273793Y-91082979D01*
X123330422Y-91294322D01*
X123330424Y-91294326D01*
X123330425Y-91294330D01*
X123350477Y-91337331D01*
X123422897Y-91492638D01*
X123438555Y-91515000D01*
X123548402Y-91671877D01*
X123703123Y-91826598D01*
X123882361Y-91952102D01*
X124080670Y-92044575D01*
X124292023Y-92101207D01*
X124474926Y-92117208D01*
X124509998Y-92120277D01*
X124510000Y-92120277D01*
X124510002Y-92120277D01*
X124538254Y-92117805D01*
X124727977Y-92101207D01*
X124939330Y-92044575D01*
X125137639Y-91952102D01*
X125316877Y-91826598D01*
X125471598Y-91671877D01*
X125597102Y-91492639D01*
X125689575Y-91294330D01*
X125746207Y-91082977D01*
X125765277Y-90865000D01*
X125746207Y-90647023D01*
X125689575Y-90435670D01*
X125597102Y-90237362D01*
X125597100Y-90237359D01*
X125597099Y-90237357D01*
X125471599Y-90058124D01*
X125471596Y-90058121D01*
X125316877Y-89903402D01*
X125137639Y-89777898D01*
X125137640Y-89777898D01*
X125137638Y-89777897D01*
X125038484Y-89731661D01*
X124939330Y-89685425D01*
X124939326Y-89685424D01*
X124939322Y-89685422D01*
X124727977Y-89628793D01*
X124510002Y-89609723D01*
X124509998Y-89609723D01*
X124364682Y-89622436D01*
X124292023Y-89628793D01*
X124292020Y-89628793D01*
X124080677Y-89685422D01*
X124080668Y-89685426D01*
X123882361Y-89777898D01*
X123882357Y-89777900D01*
X123703121Y-89903402D01*
X123548402Y-90058121D01*
X123422900Y-90237357D01*
X123422898Y-90237361D01*
X123330426Y-90435668D01*
X123330422Y-90435677D01*
X123273793Y-90647020D01*
X123273793Y-90647024D01*
X123254723Y-90864997D01*
X123254723Y-90865002D01*
X120915277Y-90865002D01*
X120915277Y-90865000D01*
X120896207Y-90647023D01*
X120839575Y-90435670D01*
X120747102Y-90237362D01*
X120747100Y-90237359D01*
X120747099Y-90237357D01*
X120621599Y-90058124D01*
X120621596Y-90058121D01*
X120466877Y-89903402D01*
X120287639Y-89777898D01*
X120287640Y-89777898D01*
X120287638Y-89777897D01*
X120188484Y-89731661D01*
X120089330Y-89685425D01*
X120089326Y-89685424D01*
X120089322Y-89685422D01*
X119877977Y-89628793D01*
X119660002Y-89609723D01*
X119659998Y-89609723D01*
X119514682Y-89622436D01*
X119442023Y-89628793D01*
X119442020Y-89628793D01*
X119230677Y-89685422D01*
X119230668Y-89685426D01*
X119032361Y-89777898D01*
X119032357Y-89777900D01*
X118853121Y-89903402D01*
X118698402Y-90058121D01*
X118572900Y-90237357D01*
X118572898Y-90237361D01*
X118480426Y-90435668D01*
X118480422Y-90435677D01*
X118423793Y-90647020D01*
X118423793Y-90647024D01*
X118404723Y-90864997D01*
X118404723Y-90865002D01*
X114545500Y-90865002D01*
X114545499Y-90309383D01*
X114545971Y-90298576D01*
X114550659Y-90245000D01*
X114550659Y-90244999D01*
X114545971Y-90191421D01*
X114545499Y-90180613D01*
X114545499Y-89347129D01*
X114545498Y-89347123D01*
X114545497Y-89347116D01*
X114539091Y-89287517D01*
X114488796Y-89152669D01*
X114411421Y-89049309D01*
X114387004Y-88983848D01*
X114401855Y-88915575D01*
X114411416Y-88900696D01*
X114488796Y-88797331D01*
X114539091Y-88662483D01*
X114545500Y-88602873D01*
X114545499Y-87835006D01*
X117954700Y-87835006D01*
X117973864Y-88066297D01*
X117973866Y-88066308D01*
X118030842Y-88291300D01*
X118124075Y-88503848D01*
X118251016Y-88698147D01*
X118251019Y-88698151D01*
X118251021Y-88698153D01*
X118408216Y-88868913D01*
X118408219Y-88868915D01*
X118408222Y-88868918D01*
X118591365Y-89011464D01*
X118591371Y-89011468D01*
X118591374Y-89011470D01*
X118795497Y-89121936D01*
X118885019Y-89152669D01*
X119015015Y-89197297D01*
X119015017Y-89197297D01*
X119015019Y-89197298D01*
X119243951Y-89235500D01*
X119243952Y-89235500D01*
X119476048Y-89235500D01*
X119476049Y-89235500D01*
X119704981Y-89197298D01*
X119924503Y-89121936D01*
X120128626Y-89011470D01*
X120311784Y-88868913D01*
X120468979Y-88698153D01*
X120595924Y-88503849D01*
X120689157Y-88291300D01*
X120746134Y-88066305D01*
X120765300Y-87835006D01*
X123404700Y-87835006D01*
X123423864Y-88066297D01*
X123423866Y-88066308D01*
X123480842Y-88291300D01*
X123574075Y-88503848D01*
X123701016Y-88698147D01*
X123701019Y-88698151D01*
X123701021Y-88698153D01*
X123858216Y-88868913D01*
X123858219Y-88868915D01*
X123858222Y-88868918D01*
X124041365Y-89011464D01*
X124041371Y-89011468D01*
X124041374Y-89011470D01*
X124245497Y-89121936D01*
X124335019Y-89152669D01*
X124465015Y-89197297D01*
X124465017Y-89197297D01*
X124465019Y-89197298D01*
X124693951Y-89235500D01*
X124693952Y-89235500D01*
X124926048Y-89235500D01*
X124926049Y-89235500D01*
X125154981Y-89197298D01*
X125374503Y-89121936D01*
X125578626Y-89011470D01*
X125761784Y-88868913D01*
X125918979Y-88698153D01*
X126045924Y-88503849D01*
X126139157Y-88291300D01*
X126196134Y-88066305D01*
X126215300Y-87835000D01*
X126215300Y-87834993D01*
X126196135Y-87603702D01*
X126196133Y-87603691D01*
X126139157Y-87378699D01*
X126045924Y-87166151D01*
X125918983Y-86971852D01*
X125918980Y-86971849D01*
X125918979Y-86971847D01*
X125761784Y-86801087D01*
X125761779Y-86801083D01*
X125761777Y-86801081D01*
X125578634Y-86658535D01*
X125578628Y-86658531D01*
X125374504Y-86548064D01*
X125374495Y-86548061D01*
X125154984Y-86472702D01*
X124983282Y-86444050D01*
X124926049Y-86434500D01*
X124693951Y-86434500D01*
X124648164Y-86442140D01*
X124465015Y-86472702D01*
X124245504Y-86548061D01*
X124245495Y-86548064D01*
X124041371Y-86658531D01*
X124041365Y-86658535D01*
X123858222Y-86801081D01*
X123858219Y-86801084D01*
X123858216Y-86801086D01*
X123858216Y-86801087D01*
X123799267Y-86865122D01*
X123701016Y-86971852D01*
X123574075Y-87166151D01*
X123480842Y-87378699D01*
X123423866Y-87603691D01*
X123423864Y-87603702D01*
X123404700Y-87834993D01*
X123404700Y-87835006D01*
X120765300Y-87835006D01*
X120765300Y-87835000D01*
X120765300Y-87834993D01*
X120746135Y-87603702D01*
X120746133Y-87603691D01*
X120689157Y-87378699D01*
X120595924Y-87166151D01*
X120468983Y-86971852D01*
X120468980Y-86971849D01*
X120468979Y-86971847D01*
X120311784Y-86801087D01*
X120311779Y-86801083D01*
X120311777Y-86801081D01*
X120128634Y-86658535D01*
X120128628Y-86658531D01*
X119924504Y-86548064D01*
X119924495Y-86548061D01*
X119704984Y-86472702D01*
X119533282Y-86444050D01*
X119476049Y-86434500D01*
X119243951Y-86434500D01*
X119198164Y-86442140D01*
X119015015Y-86472702D01*
X118795504Y-86548061D01*
X118795495Y-86548064D01*
X118591371Y-86658531D01*
X118591365Y-86658535D01*
X118408222Y-86801081D01*
X118408219Y-86801084D01*
X118408216Y-86801086D01*
X118408216Y-86801087D01*
X118349267Y-86865122D01*
X118251016Y-86971852D01*
X118124075Y-87166151D01*
X118030842Y-87378699D01*
X117973866Y-87603691D01*
X117973864Y-87603702D01*
X117954700Y-87834993D01*
X117954700Y-87835006D01*
X114545499Y-87835006D01*
X114545499Y-87769383D01*
X114545971Y-87758576D01*
X114550659Y-87705000D01*
X114550659Y-87704999D01*
X114545971Y-87651421D01*
X114545499Y-87640613D01*
X114545499Y-86807129D01*
X114545498Y-86807123D01*
X114545497Y-86807116D01*
X114539091Y-86747517D01*
X114505901Y-86658531D01*
X114488797Y-86612671D01*
X114488793Y-86612664D01*
X114402547Y-86497455D01*
X114402544Y-86497452D01*
X114287335Y-86411206D01*
X114287328Y-86411202D01*
X114152482Y-86360908D01*
X114152483Y-86360908D01*
X114092883Y-86354501D01*
X114092881Y-86354500D01*
X114092873Y-86354500D01*
X114092865Y-86354500D01*
X113259380Y-86354500D01*
X113248573Y-86354028D01*
X113222024Y-86351705D01*
X113195001Y-86349341D01*
X113194998Y-86349341D01*
X113141424Y-86354028D01*
X113130617Y-86354500D01*
X110497129Y-86354500D01*
X110497123Y-86354501D01*
X110437516Y-86360908D01*
X110302671Y-86411202D01*
X110302664Y-86411206D01*
X110187455Y-86497452D01*
X110187452Y-86497455D01*
X110101206Y-86612664D01*
X110101202Y-86612671D01*
X110050908Y-86747517D01*
X110045149Y-86801087D01*
X110044501Y-86807123D01*
X110044500Y-86807135D01*
X110044500Y-88602870D01*
X110044501Y-88602876D01*
X110050908Y-88662483D01*
X110101202Y-88797328D01*
X110101203Y-88797330D01*
X110178578Y-88900689D01*
X110202995Y-88966153D01*
X110188144Y-89034426D01*
X110178578Y-89049311D01*
X110101203Y-89152669D01*
X110101202Y-89152671D01*
X110050908Y-89287517D01*
X110044501Y-89347116D01*
X110044501Y-89347123D01*
X110044500Y-89347135D01*
X110044500Y-91142870D01*
X110044501Y-91142876D01*
X110050908Y-91202483D01*
X110101202Y-91337328D01*
X110101203Y-91337330D01*
X110178578Y-91440689D01*
X110202995Y-91506153D01*
X110188144Y-91574426D01*
X110178578Y-91589311D01*
X110101203Y-91692669D01*
X110101202Y-91692671D01*
X110050908Y-91827517D01*
X110044501Y-91887116D01*
X110044501Y-91887123D01*
X110044500Y-91887135D01*
X110044500Y-93682870D01*
X110044501Y-93682876D01*
X110050908Y-93742483D01*
X110101202Y-93877328D01*
X110101203Y-93877330D01*
X110178578Y-93980689D01*
X110202995Y-94046153D01*
X110188144Y-94114426D01*
X110178578Y-94129311D01*
X110101203Y-94232669D01*
X110101202Y-94232671D01*
X110050908Y-94367517D01*
X110044501Y-94427116D01*
X110044501Y-94427123D01*
X110044500Y-94427135D01*
X110044500Y-96222870D01*
X110044501Y-96222876D01*
X110050908Y-96282483D01*
X110101202Y-96417328D01*
X110101203Y-96417330D01*
X110178578Y-96520689D01*
X110202995Y-96586153D01*
X110188144Y-96654426D01*
X110178578Y-96669311D01*
X110101203Y-96772669D01*
X110101202Y-96772671D01*
X110050908Y-96907517D01*
X110044501Y-96967116D01*
X110044501Y-96967123D01*
X110044500Y-96967135D01*
X110044500Y-98762870D01*
X110044501Y-98762876D01*
X110050908Y-98822483D01*
X110101202Y-98957328D01*
X110101203Y-98957330D01*
X110178578Y-99060689D01*
X110202995Y-99126153D01*
X110188144Y-99194426D01*
X110178578Y-99209311D01*
X110101203Y-99312669D01*
X110101202Y-99312671D01*
X110050908Y-99447517D01*
X110044501Y-99507116D01*
X110044501Y-99507123D01*
X110044500Y-99507135D01*
X110044500Y-101302870D01*
X110044501Y-101302876D01*
X110050908Y-101362483D01*
X110101202Y-101497328D01*
X110101203Y-101497330D01*
X110178578Y-101600689D01*
X110202995Y-101666153D01*
X110188144Y-101734426D01*
X110178578Y-101749311D01*
X110101203Y-101852669D01*
X110101202Y-101852671D01*
X110050908Y-101987517D01*
X110045608Y-102036819D01*
X110044501Y-102047123D01*
X110044500Y-102047135D01*
X110044500Y-103842870D01*
X110044501Y-103842876D01*
X110050908Y-103902483D01*
X110101202Y-104037328D01*
X110101203Y-104037330D01*
X110178578Y-104140689D01*
X110202995Y-104206153D01*
X110188144Y-104274426D01*
X110178578Y-104289311D01*
X110101203Y-104392669D01*
X110101202Y-104392671D01*
X110050908Y-104527517D01*
X110044501Y-104587116D01*
X110044501Y-104587123D01*
X110044500Y-104587135D01*
X110044500Y-106382870D01*
X110044501Y-106382876D01*
X110050908Y-106442483D01*
X110101202Y-106577328D01*
X110101203Y-106577330D01*
X110178578Y-106680689D01*
X110202995Y-106746153D01*
X110188144Y-106814426D01*
X110178578Y-106829311D01*
X110101203Y-106932669D01*
X110101202Y-106932671D01*
X110050908Y-107067517D01*
X110044501Y-107127116D01*
X110044501Y-107127123D01*
X110044500Y-107127135D01*
X110044500Y-108922870D01*
X110044501Y-108922876D01*
X110050908Y-108982483D01*
X110101202Y-109117328D01*
X110101203Y-109117330D01*
X110178578Y-109220689D01*
X110202995Y-109286153D01*
X110188144Y-109354426D01*
X110178578Y-109369311D01*
X110101203Y-109472669D01*
X110101202Y-109472671D01*
X110050908Y-109607517D01*
X110044501Y-109667116D01*
X110044501Y-109667123D01*
X110044500Y-109667135D01*
X110044500Y-111462870D01*
X110044501Y-111462876D01*
X110050908Y-111522483D01*
X110101202Y-111657328D01*
X110101203Y-111657330D01*
X110178578Y-111760689D01*
X110202995Y-111826153D01*
X110188144Y-111894426D01*
X110178578Y-111909311D01*
X110101203Y-112012669D01*
X110101202Y-112012671D01*
X110050908Y-112147517D01*
X110044501Y-112207116D01*
X110044500Y-112207129D01*
X110044500Y-114002870D01*
X110044501Y-114002876D01*
X110050908Y-114062483D01*
X110101202Y-114197328D01*
X110101203Y-114197330D01*
X110101204Y-114197331D01*
X110178576Y-114300687D01*
X110178578Y-114300689D01*
X110202995Y-114366153D01*
X110188144Y-114434426D01*
X110178578Y-114449309D01*
X110141006Y-114499500D01*
X110101204Y-114552669D01*
X110050908Y-114687517D01*
X110045002Y-114742454D01*
X110044501Y-114747123D01*
X110044500Y-114747135D01*
X110044500Y-116542870D01*
X110044501Y-116542876D01*
X110050908Y-116602483D01*
X110101202Y-116737328D01*
X110101203Y-116737330D01*
X110178578Y-116840689D01*
X110202995Y-116906153D01*
X110188144Y-116974426D01*
X110178578Y-116989311D01*
X110101203Y-117092669D01*
X110101202Y-117092671D01*
X110050908Y-117227517D01*
X110046952Y-117264317D01*
X110044501Y-117287123D01*
X110044500Y-117287135D01*
X110044500Y-119082870D01*
X110044501Y-119082876D01*
X110050908Y-119142483D01*
X110101202Y-119277328D01*
X110101203Y-119277330D01*
X110178578Y-119380689D01*
X110202995Y-119446153D01*
X110188144Y-119514426D01*
X110178578Y-119529311D01*
X110101203Y-119632669D01*
X110101202Y-119632671D01*
X110050908Y-119767517D01*
X110047470Y-119799500D01*
X110044501Y-119827123D01*
X110044500Y-119827135D01*
X110044500Y-121622870D01*
X110044501Y-121622876D01*
X110050908Y-121682483D01*
X110101202Y-121817328D01*
X110101203Y-121817330D01*
X110178578Y-121920689D01*
X110202995Y-121986153D01*
X110188144Y-122054426D01*
X110178578Y-122069311D01*
X110101203Y-122172669D01*
X110101202Y-122172671D01*
X110050908Y-122307517D01*
X110044501Y-122367116D01*
X110044501Y-122367123D01*
X110044500Y-122367135D01*
X110044500Y-124162870D01*
X110044501Y-124162876D01*
X110050908Y-124222483D01*
X110101202Y-124357328D01*
X110101203Y-124357330D01*
X110178578Y-124460689D01*
X110202995Y-124526153D01*
X110188144Y-124594426D01*
X110178578Y-124609311D01*
X110101203Y-124712669D01*
X110101202Y-124712671D01*
X110050908Y-124847517D01*
X110046952Y-124884317D01*
X110044501Y-124907123D01*
X110044500Y-124907135D01*
X110044500Y-126702870D01*
X110044501Y-126702876D01*
X110050908Y-126762483D01*
X110101202Y-126897328D01*
X110101203Y-126897330D01*
X110178578Y-127000689D01*
X110202995Y-127066153D01*
X110188144Y-127134426D01*
X110178578Y-127149311D01*
X110101203Y-127252669D01*
X110101202Y-127252671D01*
X110050908Y-127387517D01*
X110044501Y-127447116D01*
X110044501Y-127447123D01*
X110044500Y-127447135D01*
X110044500Y-129242870D01*
X110044501Y-129242876D01*
X110050908Y-129302483D01*
X110101202Y-129437328D01*
X110101203Y-129437330D01*
X110178578Y-129540689D01*
X110202995Y-129606153D01*
X110188144Y-129674426D01*
X110178578Y-129689311D01*
X110101203Y-129792669D01*
X110101202Y-129792671D01*
X110050908Y-129927517D01*
X110044501Y-129987116D01*
X110044501Y-129987123D01*
X110044500Y-129987135D01*
X110044500Y-131782870D01*
X110044501Y-131782876D01*
X110050908Y-131842483D01*
X110101202Y-131977328D01*
X110101203Y-131977330D01*
X110178578Y-132080689D01*
X110202995Y-132146153D01*
X110188144Y-132214426D01*
X110178578Y-132229311D01*
X110101203Y-132332669D01*
X110101202Y-132332671D01*
X110050908Y-132467517D01*
X110044501Y-132527116D01*
X110044501Y-132527123D01*
X110044500Y-132527135D01*
X110044500Y-134322870D01*
X110044501Y-134322876D01*
X110050908Y-134382483D01*
X110101202Y-134517328D01*
X110101203Y-134517330D01*
X110178578Y-134620689D01*
X110202995Y-134686153D01*
X110188144Y-134754426D01*
X110178578Y-134769311D01*
X110101203Y-134872669D01*
X110101202Y-134872671D01*
X110050908Y-135007517D01*
X110044501Y-135067116D01*
X110044501Y-135067123D01*
X110044500Y-135067135D01*
X110044500Y-136862870D01*
X99226025Y-136862870D01*
X98500011Y-83500808D01*
X98500000Y-83499121D01*
X98500000Y-67623516D01*
X98519685Y-67556477D01*
X98572489Y-67510722D01*
X98623513Y-67499517D01*
X226374833Y-67000488D01*
X226441945Y-67019910D01*
G37*
%TD.AperFunction*%
%TA.AperFunction,NonConductor*%
G36*
X209368833Y-124137477D02*
G01*
X209424767Y-124179349D01*
X209449184Y-124244813D01*
X209449500Y-124253659D01*
X209449500Y-127084217D01*
X209429815Y-127151256D01*
X209413181Y-127171898D01*
X208996899Y-127588181D01*
X208935576Y-127621666D01*
X208918206Y-127623533D01*
X208918252Y-127624117D01*
X208913391Y-127624499D01*
X208742302Y-127651597D01*
X208577552Y-127705128D01*
X208423211Y-127783768D01*
X208343301Y-127841827D01*
X208283072Y-127885586D01*
X208283070Y-127885588D01*
X208283069Y-127885588D01*
X208212181Y-127956477D01*
X208150858Y-127989962D01*
X208081166Y-127984978D01*
X208025233Y-127943106D01*
X208000816Y-127877642D01*
X208000500Y-127868796D01*
X208000500Y-125741292D01*
X208020185Y-125674253D01*
X208072989Y-125628498D01*
X208081167Y-125625110D01*
X208083161Y-125624367D01*
X208334315Y-125487226D01*
X208563395Y-125315739D01*
X208765739Y-125113395D01*
X208937226Y-124884315D01*
X209074367Y-124633161D01*
X209174369Y-124365046D01*
X209176048Y-124357328D01*
X209204334Y-124227301D01*
X209237819Y-124165978D01*
X209299142Y-124132493D01*
X209368833Y-124137477D01*
G37*
%TD.AperFunction*%
%TA.AperFunction,NonConductor*%
G36*
X185101257Y-102020185D02*
G01*
X185121899Y-102036819D01*
X187963181Y-104878101D01*
X187996666Y-104939424D01*
X187999500Y-104965782D01*
X187999500Y-111034217D01*
X187979815Y-111101256D01*
X187963181Y-111121898D01*
X187362220Y-111722859D01*
X187362218Y-111722861D01*
X187324391Y-111760688D01*
X187222859Y-111862219D01*
X187113371Y-112026079D01*
X187113364Y-112026092D01*
X187068945Y-112133333D01*
X187063070Y-112147517D01*
X187038378Y-112207129D01*
X187038364Y-112207163D01*
X187037947Y-112208167D01*
X186999500Y-112401454D01*
X186999500Y-115390935D01*
X186979815Y-115457974D01*
X186927011Y-115503729D01*
X186857853Y-115513673D01*
X186794297Y-115484648D01*
X186760072Y-115436238D01*
X186749639Y-115409655D01*
X186616958Y-115179845D01*
X186451508Y-114972377D01*
X186256984Y-114791886D01*
X186210380Y-114760112D01*
X186037736Y-114642404D01*
X186037725Y-114642397D01*
X185798655Y-114527268D01*
X185798636Y-114527261D01*
X185545083Y-114449051D01*
X185545073Y-114449048D01*
X185282688Y-114409500D01*
X185282681Y-114409500D01*
X185017319Y-114409500D01*
X185017311Y-114409500D01*
X184754926Y-114449048D01*
X184754916Y-114449051D01*
X184501363Y-114527261D01*
X184501344Y-114527268D01*
X184262276Y-114642397D01*
X184262274Y-114642398D01*
X184043015Y-114791886D01*
X183848494Y-114972375D01*
X183848492Y-114972377D01*
X183683042Y-115179845D01*
X183550361Y-115409654D01*
X183453416Y-115656667D01*
X183453410Y-115656686D01*
X183394364Y-115915385D01*
X183394363Y-115915390D01*
X183374535Y-116179995D01*
X183374535Y-116180004D01*
X183394363Y-116444608D01*
X183395002Y-116448844D01*
X183385530Y-116518069D01*
X183360068Y-116555009D01*
X176541899Y-123373181D01*
X176480576Y-123406666D01*
X176454218Y-123409500D01*
X174998078Y-123409500D01*
X174931039Y-123389815D01*
X174885284Y-123337011D01*
X174875340Y-123267853D01*
X174876461Y-123261307D01*
X174880500Y-123241003D01*
X174880500Y-123038996D01*
X174880499Y-123038992D01*
X174841092Y-122840880D01*
X174841091Y-122840873D01*
X174763786Y-122654244D01*
X174710094Y-122573889D01*
X174689217Y-122507214D01*
X174707701Y-122439834D01*
X174710078Y-122436134D01*
X174763786Y-122355756D01*
X174841091Y-122169127D01*
X174872355Y-122011947D01*
X174884617Y-121977684D01*
X174886631Y-121973915D01*
X174886632Y-121973914D01*
X174943496Y-121836632D01*
X174962051Y-121791836D01*
X175000500Y-121598540D01*
X175000500Y-121401460D01*
X175000500Y-121401459D01*
X175000500Y-117029377D01*
X175020185Y-116962338D01*
X175033264Y-116945401D01*
X175108979Y-116863153D01*
X175235924Y-116668849D01*
X175329157Y-116456300D01*
X175386134Y-116231305D01*
X175390385Y-116180001D01*
X175405300Y-116000006D01*
X175405300Y-115999993D01*
X175386135Y-115768702D01*
X175386133Y-115768691D01*
X175329157Y-115543699D01*
X175235924Y-115331151D01*
X175108979Y-115136846D01*
X175108977Y-115136844D01*
X175033270Y-115054603D01*
X175002348Y-114991948D01*
X175000500Y-114970621D01*
X175000500Y-109465782D01*
X175020185Y-109398743D01*
X175036819Y-109378101D01*
X175338101Y-109076819D01*
X175399424Y-109043334D01*
X175425782Y-109040500D01*
X177225500Y-109040500D01*
X177292539Y-109060185D01*
X177338294Y-109112989D01*
X177349500Y-109164500D01*
X177349500Y-109682870D01*
X177349501Y-109682876D01*
X177355908Y-109742483D01*
X177406202Y-109877328D01*
X177406206Y-109877335D01*
X177492452Y-109992544D01*
X177492455Y-109992547D01*
X177607664Y-110078793D01*
X177607671Y-110078797D01*
X177742517Y-110129091D01*
X177742516Y-110129091D01*
X177749444Y-110129835D01*
X177802127Y-110135500D01*
X179597872Y-110135499D01*
X179657483Y-110129091D01*
X179792331Y-110078796D01*
X179907546Y-109992546D01*
X179993796Y-109877331D01*
X180044091Y-109742483D01*
X180050500Y-109682873D01*
X180050500Y-109682870D01*
X184649500Y-109682870D01*
X184649501Y-109682876D01*
X184655908Y-109742483D01*
X184706202Y-109877328D01*
X184706206Y-109877335D01*
X184792452Y-109992544D01*
X184792455Y-109992547D01*
X184907664Y-110078793D01*
X184907671Y-110078797D01*
X185042517Y-110129091D01*
X185042516Y-110129091D01*
X185049444Y-110129835D01*
X185102127Y-110135500D01*
X186897872Y-110135499D01*
X186957483Y-110129091D01*
X187092331Y-110078796D01*
X187207546Y-109992546D01*
X187293796Y-109877331D01*
X187344091Y-109742483D01*
X187350500Y-109682873D01*
X187350499Y-108937128D01*
X187344091Y-108877517D01*
X187293797Y-108742671D01*
X187293797Y-108742670D01*
X187289547Y-108734888D01*
X187292757Y-108733134D01*
X187274361Y-108684001D01*
X187289127Y-108615709D01*
X187289752Y-108614736D01*
X187293797Y-108607329D01*
X187309760Y-108564528D01*
X187344091Y-108472483D01*
X187350500Y-108412873D01*
X187350499Y-107667128D01*
X187344091Y-107607517D01*
X187293797Y-107472671D01*
X187293797Y-107472670D01*
X187289547Y-107464888D01*
X187292757Y-107463134D01*
X187274361Y-107414001D01*
X187289127Y-107345709D01*
X187289752Y-107344736D01*
X187293797Y-107337329D01*
X187305052Y-107307150D01*
X187344091Y-107202483D01*
X187350500Y-107142873D01*
X187350499Y-106397128D01*
X187344091Y-106337517D01*
X187293797Y-106202671D01*
X187293797Y-106202670D01*
X187289547Y-106194888D01*
X187292757Y-106193134D01*
X187274361Y-106144001D01*
X187289127Y-106075709D01*
X187289752Y-106074736D01*
X187293797Y-106067329D01*
X187321571Y-105992862D01*
X187344091Y-105932483D01*
X187350500Y-105872873D01*
X187350499Y-105127128D01*
X187344091Y-105067517D01*
X187306146Y-104965782D01*
X187293797Y-104932671D01*
X187293793Y-104932664D01*
X187207547Y-104817455D01*
X187207544Y-104817452D01*
X187092335Y-104731206D01*
X187092328Y-104731202D01*
X186957482Y-104680908D01*
X186957483Y-104680908D01*
X186897883Y-104674501D01*
X186897881Y-104674500D01*
X186897873Y-104674500D01*
X186897864Y-104674500D01*
X185102129Y-104674500D01*
X185102123Y-104674501D01*
X185042516Y-104680908D01*
X184907671Y-104731202D01*
X184907664Y-104731206D01*
X184792455Y-104817452D01*
X184792452Y-104817455D01*
X184706206Y-104932664D01*
X184706202Y-104932671D01*
X184655910Y-105067513D01*
X184655909Y-105067517D01*
X184649500Y-105127127D01*
X184649500Y-105127134D01*
X184649500Y-105127135D01*
X184649500Y-105872870D01*
X184649501Y-105872876D01*
X184655908Y-105932483D01*
X184706202Y-106067328D01*
X184710454Y-106075114D01*
X184707280Y-106076846D01*
X184725659Y-106126302D01*
X184710725Y-106194557D01*
X184710117Y-106195502D01*
X184706202Y-106202671D01*
X184655910Y-106337513D01*
X184655909Y-106337517D01*
X184649500Y-106397127D01*
X184649500Y-106397134D01*
X184649500Y-106397135D01*
X184649500Y-107142870D01*
X184649501Y-107142876D01*
X184655908Y-107202483D01*
X184706202Y-107337328D01*
X184710454Y-107345114D01*
X184707280Y-107346846D01*
X184725659Y-107396302D01*
X184710725Y-107464557D01*
X184710117Y-107465502D01*
X184706202Y-107472671D01*
X184655910Y-107607513D01*
X184655909Y-107607517D01*
X184649500Y-107667127D01*
X184649500Y-107667134D01*
X184649500Y-107667135D01*
X184649500Y-108412870D01*
X184649501Y-108412876D01*
X184655908Y-108472483D01*
X184706202Y-108607328D01*
X184710454Y-108615114D01*
X184707280Y-108616846D01*
X184725659Y-108666302D01*
X184710725Y-108734557D01*
X184710117Y-108735502D01*
X184706202Y-108742671D01*
X184655910Y-108877513D01*
X184655909Y-108877517D01*
X184649500Y-108937127D01*
X184649500Y-108937134D01*
X184649500Y-108937135D01*
X184649500Y-109682870D01*
X180050500Y-109682870D01*
X180050499Y-108937128D01*
X180044091Y-108877517D01*
X179993797Y-108742671D01*
X179993797Y-108742670D01*
X179989547Y-108734888D01*
X179992757Y-108733134D01*
X179974361Y-108684001D01*
X179989127Y-108615709D01*
X179989752Y-108614736D01*
X179993797Y-108607329D01*
X180009760Y-108564528D01*
X180044091Y-108472483D01*
X180050500Y-108412873D01*
X180050499Y-107667128D01*
X180044091Y-107607517D01*
X179993797Y-107472671D01*
X179993797Y-107472670D01*
X179989547Y-107464888D01*
X179992757Y-107463134D01*
X179974361Y-107414001D01*
X179989127Y-107345709D01*
X179989752Y-107344736D01*
X179993797Y-107337329D01*
X180005052Y-107307150D01*
X180044091Y-107202483D01*
X180050500Y-107142873D01*
X180050499Y-106397128D01*
X180044091Y-106337517D01*
X179993797Y-106202671D01*
X179993797Y-106202670D01*
X179989547Y-106194888D01*
X179992757Y-106193134D01*
X179974361Y-106144001D01*
X179989127Y-106075709D01*
X179989752Y-106074736D01*
X179993797Y-106067329D01*
X180021571Y-105992862D01*
X180044091Y-105932483D01*
X180050500Y-105872873D01*
X180050499Y-105127128D01*
X180044091Y-105067517D01*
X180006146Y-104965782D01*
X179993797Y-104932671D01*
X179993793Y-104932664D01*
X179907547Y-104817455D01*
X179907544Y-104817452D01*
X179792335Y-104731206D01*
X179792332Y-104731205D01*
X179792331Y-104731204D01*
X179781161Y-104727038D01*
X179725231Y-104685166D01*
X179700816Y-104619701D01*
X179700500Y-104610858D01*
X179700500Y-104265782D01*
X179720185Y-104198743D01*
X179736819Y-104178101D01*
X181878101Y-102036819D01*
X181939424Y-102003334D01*
X181965782Y-102000500D01*
X185034218Y-102000500D01*
X185101257Y-102020185D01*
G37*
%TD.AperFunction*%
M02*
