%TF.GenerationSoftware,KiCad,Pcbnew,8.0.0*%
%TF.CreationDate,2024-03-28T12:09:13-03:00*%
%TF.ProjectId,Ponderada,506f6e64-6572-4616-9461-2e6b69636164,rev?*%
%TF.SameCoordinates,Original*%
%TF.FileFunction,Soldermask,Bot*%
%TF.FilePolarity,Negative*%
%FSLAX46Y46*%
G04 Gerber Fmt 4.6, Leading zero omitted, Abs format (unit mm)*
G04 Created by KiCad (PCBNEW 8.0.0) date 2024-03-28 12:09:13*
%MOMM*%
%LPD*%
G01*
G04 APERTURE LIST*
G04 Aperture macros list*
%AMRoundRect*
0 Rectangle with rounded corners*
0 $1 Rounding radius*
0 $2 $3 $4 $5 $6 $7 $8 $9 X,Y pos of 4 corners*
0 Add a 4 corners polygon primitive as box body*
4,1,4,$2,$3,$4,$5,$6,$7,$8,$9,$2,$3,0*
0 Add four circle primitives for the rounded corners*
1,1,$1+$1,$2,$3*
1,1,$1+$1,$4,$5*
1,1,$1+$1,$6,$7*
1,1,$1+$1,$8,$9*
0 Add four rect primitives between the rounded corners*
20,1,$1+$1,$2,$3,$4,$5,0*
20,1,$1+$1,$4,$5,$6,$7,0*
20,1,$1+$1,$6,$7,$8,$9,0*
20,1,$1+$1,$8,$9,$2,$3,0*%
G04 Aperture macros list end*
%ADD10O,1.800000X1.800000*%
%ADD11O,1.500000X1.500000*%
%ADD12O,1.700000X1.700000*%
%ADD13R,1.700000X1.700000*%
%ADD14C,2.400000*%
%ADD15O,2.400000X2.400000*%
%ADD16R,1.500000X1.050000*%
%ADD17O,1.500000X1.050000*%
%ADD18C,2.540000*%
%ADD19R,2.540000X2.540000*%
%ADD20C,3.000000*%
%ADD21RoundRect,0.250000X-0.350000X-0.625000X0.350000X-0.625000X0.350000X0.625000X-0.350000X0.625000X0*%
%ADD22O,1.200000X1.750000*%
%ADD23R,1.800000X1.800000*%
%ADD24C,1.800000*%
G04 APERTURE END LIST*
D10*
%TO.C,U1*%
X119360000Y-87835000D03*
D11*
X119660000Y-90865000D03*
X124510000Y-90865000D03*
D10*
X124810000Y-87835000D03*
D12*
X113195000Y-87705000D03*
X113195000Y-90245000D03*
D13*
X113195000Y-92785000D03*
D12*
X113195000Y-95325000D03*
X113195000Y-97865000D03*
X113195000Y-100405000D03*
X113195000Y-102945000D03*
D13*
X113195000Y-105485000D03*
D12*
X113195000Y-108025000D03*
X113195000Y-110565000D03*
X113195000Y-113105000D03*
X113195000Y-115645000D03*
D13*
X113195000Y-118185000D03*
D12*
X113195000Y-120725000D03*
X113195000Y-123265000D03*
X113195000Y-125805000D03*
X113195000Y-128345000D03*
D13*
X113195000Y-130885000D03*
D12*
X113195000Y-133425000D03*
X113195000Y-135965000D03*
X130975000Y-135965000D03*
X130975000Y-133425000D03*
D13*
X130975000Y-130885000D03*
D12*
X130975000Y-128345000D03*
X130975000Y-125805000D03*
X130975000Y-123265000D03*
X130975000Y-120725000D03*
D13*
X130975000Y-118185000D03*
D12*
X130975000Y-115645000D03*
X130975000Y-113105000D03*
X130975000Y-110565000D03*
X130975000Y-108025000D03*
D13*
X130975000Y-105485000D03*
D12*
X130975000Y-102945000D03*
X130975000Y-100405000D03*
X130975000Y-97865000D03*
X130975000Y-95325000D03*
D13*
X130975000Y-92785000D03*
D12*
X130975000Y-90245000D03*
X130975000Y-87705000D03*
X119545000Y-135735000D03*
D13*
X122085000Y-135735000D03*
D12*
X124625000Y-135735000D03*
%TD*%
D14*
%TO.C,R2*%
X138300000Y-115500000D03*
D15*
X163700000Y-115500000D03*
%TD*%
D14*
%TO.C,R1*%
X137800000Y-121500000D03*
D15*
X163200000Y-121500000D03*
%TD*%
D16*
%TO.C,Q1*%
X173630000Y-124410000D03*
D17*
X173630000Y-123140000D03*
X173630000Y-121870000D03*
%TD*%
D18*
%TO.C,K1*%
X185150000Y-116180000D03*
D19*
X185150000Y-123800000D03*
D20*
X210450000Y-116180000D03*
X204050000Y-116180000D03*
X207250000Y-123800000D03*
%TD*%
D21*
%TO.C,J1*%
X207000000Y-129000000D03*
D22*
X209000000Y-129000000D03*
%TD*%
D23*
%TO.C,D1*%
X171460000Y-116000000D03*
D24*
X174000000Y-116000000D03*
%TD*%
M02*
